<svg width="24" height="24" viewBox="0 0 66 65" fill="none" xmlns="http://www.w3.org/2000/svg">
<g opacity="0.7" filter="url(#filter0_bdi_2985_30672)">
<path fill-rule="evenodd" clip-rule="evenodd" d="M25.5 7.5C24.6716 7.5 24 8.17157 24 9V22.5C24 23.3284 24.6716 24 25.5 24H40.5C41.3284 24 42 23.3284 42 22.5V9C42 8.17157 41.3284 7.5 40.5 7.5H25.5ZM22.5 9C22.5 7.34315 23.8431 6 25.5 6H40.5C42.1569 6 43.5 7.34315 43.5 9V22.5C43.5 24.1569 42.1569 25.5 40.5 25.5H25.5C23.8431 25.5 22.5 24.1569 22.5 22.5V9Z" fill="white"/>
<path fill-rule="evenodd" clip-rule="evenodd" d="M27 4.5C27.4142 4.5 27.75 4.83579 27.75 5.25V6.75C27.75 7.16421 27.4142 7.5 27 7.5C26.5858 7.5 26.25 7.16421 26.25 6.75V5.25C26.25 4.83579 26.5858 4.5 27 4.5Z" fill="white"/>
<path fill-rule="evenodd" clip-rule="evenodd" d="M39 4.5C39.4142 4.5 39.75 4.83579 39.75 5.25V6.75C39.75 7.16421 39.4142 7.5 39 7.5C38.5858 7.5 38.25 7.16421 38.25 6.75V5.25C38.25 4.83579 38.5858 4.5 39 4.5Z" fill="white"/>
<path fill-rule="evenodd" clip-rule="evenodd" d="M22.5 10.5C22.5 10.0858 22.8358 9.75 23.25 9.75H42.75C43.1642 9.75 43.5 10.0858 43.5 10.5C43.5 10.9142 43.1642 11.25 42.75 11.25H23.25C22.8358 11.25 22.5 10.9142 22.5 10.5Z" fill="white"/>
<path fill-rule="evenodd" clip-rule="evenodd" d="M36.8404 13.0837C36.9693 12.9887 37.1252 12.9375 37.2854 12.9375H37.5C37.9143 12.9375 38.25 13.2733 38.25 13.6875V21.5625C38.25 21.9767 37.9143 22.3125 37.5 22.3125C37.0858 22.3125 36.75 21.9767 36.75 21.5625V15.0137L35.695 15.7912C35.3616 16.037 34.892 15.9659 34.6463 15.6325C34.4006 15.299 34.4717 14.8295 34.8051 14.5838L36.8404 13.0837Z" fill="white"/>
<path fill-rule="evenodd" clip-rule="evenodd" d="M27.5733 14.0055C27.8931 13.465 28.6909 12.75 29.9931 12.75C30.712 12.75 31.4437 12.9445 32.0147 13.3794C32.6052 13.8291 32.9867 14.5122 32.9879 15.3661C32.9912 15.7017 32.9275 16.0347 32.8006 16.3455C32.6738 16.656 32.4864 16.9383 32.2494 17.1756C31.5642 17.8746 30.5724 18.1233 29.995 18.1233C29.5807 18.1233 29.245 17.7875 29.245 17.3733C29.245 16.9591 29.5807 16.6233 29.995 16.6233C30.1082 16.6233 30.3224 16.5931 30.5634 16.504C30.8014 16.4159 31.0205 16.2871 31.1797 16.1241C31.1819 16.1218 31.1842 16.1195 31.1865 16.1172C31.2835 16.0204 31.3601 15.9053 31.4119 15.7785C31.4637 15.6516 31.4895 15.5158 31.488 15.3788C31.4879 15.376 31.4879 15.3731 31.4879 15.3703C31.4879 15.0018 31.3403 14.7512 31.1058 14.5727C30.8509 14.3785 30.4601 14.25 29.9931 14.25C29.289 14.25 28.9506 14.6235 28.8644 14.7692C28.6535 15.1257 28.1935 15.2437 27.837 15.0329C27.4805 14.822 27.3625 14.362 27.5733 14.0055Z" fill="white"/>
<path fill-rule="evenodd" clip-rule="evenodd" d="M29.244 17.373C29.244 16.9588 29.5798 16.623 29.994 16.623C30.6277 16.623 31.7251 16.8985 32.4775 17.6677C33.0219 18.2227 33.2345 18.966 33.2345 19.6957C33.2345 20.5835 32.8499 21.312 32.2304 21.8013C31.6281 22.2771 30.8428 22.4998 30.0414 22.4998C28.5216 22.4998 27.6263 21.4073 27.3386 20.9197C27.1281 20.5629 27.2466 20.1031 27.6033 19.8926C27.9601 19.6821 28.4199 19.8006 28.6304 20.1574C28.8002 20.4451 29.2952 20.9998 30.0414 20.9998C30.5801 20.9998 31.0164 20.8488 31.3006 20.6243C31.5676 20.4133 31.7345 20.1148 31.7345 19.6957C31.7345 19.2425 31.6041 18.9192 31.4064 18.7178L31.4054 18.7168C30.9992 18.3013 30.3259 18.123 29.994 18.123C29.5798 18.123 29.244 17.7873 29.244 17.373Z" fill="white"/>
</g>
<defs>
<filter id="filter0_bdi_2985_30672" x="-122.124" y="-140.124" width="310.249" height="310.249" filterUnits="userSpaceOnUse" color-interpolation-filters="sRGB">
<feFlood flood-opacity="0" result="BackgroundImageFix"/>
<feGaussianBlur in="BackgroundImageFix" stdDeviation="71.5622"/>
<feComposite in2="SourceAlpha" operator="in" result="effect1_backgroundBlur_2985_30672"/>
<feColorMatrix in="SourceAlpha" type="matrix" values="0 0 0 0 0 0 0 0 0 0 0 0 0 0 0 0 0 0 127 0" result="hardAlpha"/>
<feOffset dy="17.5254"/>
<feGaussianBlur stdDeviation="10.9534"/>
<feComposite in2="hardAlpha" operator="out"/>
<feColorMatrix type="matrix" values="0 0 0 0 0 0 0 0 0 0 0 0 0 0 0 0 0 0 0.05 0"/>
<feBlend mode="normal" in2="effect1_backgroundBlur_2985_30672" result="effect2_dropShadow_2985_30672"/>
<feBlend mode="normal" in="SourceGraphic" in2="effect2_dropShadow_2985_30672" result="shape"/>
<feColorMatrix in="SourceAlpha" type="matrix" values="0 0 0 0 0 0 0 0 0 0 0 0 0 0 0 0 0 0 127 0" result="hardAlpha"/>
<feMorphology radius="1.46045" operator="dilate" in="SourceAlpha" result="effect3_innerShadow_2985_30672"/>
<feOffset dx="-0.730227" dy="0.730227"/>
<feGaussianBlur stdDeviation="0.365113"/>
<feComposite in2="hardAlpha" operator="arithmetic" k2="-1" k3="1"/>
<feColorMatrix type="matrix" values="0 0 0 0 1 0 0 0 0 1 0 0 0 0 1 0 0 0 0.35 0"/>
<feBlend mode="normal" in2="shape" result="effect3_innerShadow_2985_30672"/>
</filter>
</defs>
</svg>
