<svg width="394" height="409" viewBox="0 0 394 409" fill="none" xmlns="http://www.w3.org/2000/svg">
<g filter="url(#filter0_bdi_3675_125354)">
<path fill-rule="evenodd" clip-rule="evenodd" d="M73.875 73.875C60.275 73.875 49.25 84.9 49.25 98.5V320.125C49.25 333.725 60.275 344.75 73.875 344.75H320.125C333.725 344.75 344.75 333.725 344.75 320.125V98.5C344.75 84.9 333.725 73.875 320.125 73.875H73.875ZM24.625 98.5C24.625 71.3 46.675 49.25 73.875 49.25H320.125C347.325 49.25 369.375 71.3 369.375 98.5V320.125C369.375 347.325 347.325 369.375 320.125 369.375H73.875C46.675 369.375 24.625 347.325 24.625 320.125V98.5Z" fill="white"/>
<path fill-rule="evenodd" clip-rule="evenodd" d="M98.5 24.625C105.3 24.625 110.812 30.1375 110.812 36.9375V61.5625C110.812 68.3625 105.3 73.875 98.5 73.875C91.7 73.875 86.1875 68.3625 86.1875 61.5625V36.9375C86.1875 30.1375 91.7 24.625 98.5 24.625Z" fill="white"/>
<path fill-rule="evenodd" clip-rule="evenodd" d="M295.5 24.625C302.3 24.625 307.812 30.1375 307.812 36.9375V61.5625C307.812 68.3625 302.3 73.875 295.5 73.875C288.7 73.875 283.188 68.3625 283.188 61.5625V36.9375C283.188 30.1375 288.7 24.625 295.5 24.625Z" fill="white"/>
<path fill-rule="evenodd" clip-rule="evenodd" d="M24.625 123.125C24.625 116.325 30.1375 110.812 36.9375 110.812H357.062C363.862 110.812 369.375 116.325 369.375 123.125C369.375 129.925 363.862 135.438 357.062 135.438H36.9375C30.1375 135.438 24.625 129.925 24.625 123.125Z" fill="white"/>
<path fill-rule="evenodd" clip-rule="evenodd" d="M260.046 165.542C262.162 163.982 264.722 163.141 267.351 163.141H270.875C277.675 163.141 283.188 168.653 283.188 175.453V304.734C283.188 311.534 277.675 317.047 270.875 317.047C264.075 317.047 258.563 311.534 258.563 304.734V197.225L241.242 209.99C235.768 214.024 228.06 212.857 224.026 207.383C219.992 201.909 221.159 194.201 226.633 190.167L260.046 165.542Z" fill="white"/>
<path fill-rule="evenodd" clip-rule="evenodd" d="M107.895 180.674C113.144 171.8 126.242 160.062 147.619 160.062C159.422 160.062 171.433 163.255 180.807 170.395C190.501 177.778 196.764 188.992 196.784 203.01C196.837 208.52 195.792 213.986 193.709 219.088C191.627 224.187 188.551 228.82 184.66 232.717C173.411 244.191 157.13 248.274 147.65 248.274C140.85 248.274 135.337 242.761 135.337 235.961C135.337 229.161 140.85 223.649 147.65 223.649C149.51 223.649 153.025 223.154 156.982 221.69C160.89 220.245 164.485 218.129 167.099 215.453C167.136 215.415 167.174 215.378 167.211 215.34C168.803 213.752 170.061 211.861 170.911 209.78C171.761 207.698 172.186 205.467 172.16 203.219C172.16 203.172 172.16 203.126 172.16 203.079C172.16 197.029 169.735 192.916 165.886 189.985C161.701 186.797 155.285 184.687 147.619 184.687C136.06 184.687 130.505 190.818 129.09 193.211C125.628 199.064 118.077 201.002 112.224 197.539C106.371 194.077 104.433 186.526 107.895 180.674Z" fill="white"/>
<path fill-rule="evenodd" clip-rule="evenodd" d="M135.337 235.961C135.337 229.161 140.85 223.649 147.65 223.649C158.053 223.649 176.068 228.17 188.421 240.798C197.358 249.91 200.848 262.113 200.848 274.092C200.848 288.666 194.533 300.626 184.364 308.659C174.476 316.47 161.583 320.125 148.427 320.125C123.478 320.125 108.78 302.19 104.056 294.185C100.6 288.329 102.546 280.78 108.403 277.324C114.259 273.868 121.808 275.814 125.264 281.671C128.051 286.394 136.178 295.5 148.427 295.5C157.272 295.5 164.433 293.022 169.099 289.336C173.484 285.873 176.223 280.972 176.223 274.092C176.223 266.652 174.082 261.344 170.836 258.037L170.821 258.021C164.151 251.2 153.098 248.274 147.65 248.274C140.85 248.274 135.337 242.761 135.337 235.961Z" fill="white"/>
</g>
<defs>
<filter id="filter0_bdi_3675_125354" x="-143.124" y="-143.124" width="680.249" height="680.249" filterUnits="userSpaceOnUse" color-interpolation-filters="sRGB">
<feFlood flood-opacity="0" result="BackgroundImageFix"/>
<feGaussianBlur in="BackgroundImageFix" stdDeviation="71.5622"/>
<feComposite in2="SourceAlpha" operator="in" result="effect1_backgroundBlur_3675_125354"/>
<feColorMatrix in="SourceAlpha" type="matrix" values="0 0 0 0 0 0 0 0 0 0 0 0 0 0 0 0 0 0 127 0" result="hardAlpha"/>
<feOffset dy="17.5254"/>
<feGaussianBlur stdDeviation="10.9534"/>
<feComposite in2="hardAlpha" operator="out"/>
<feColorMatrix type="matrix" values="0 0 0 0 0 0 0 0 0 0 0 0 0 0 0 0 0 0 0.05 0"/>
<feBlend mode="normal" in2="effect1_backgroundBlur_3675_125354" result="effect2_dropShadow_3675_125354"/>
<feBlend mode="normal" in="SourceGraphic" in2="effect2_dropShadow_3675_125354" result="shape"/>
<feColorMatrix in="SourceAlpha" type="matrix" values="0 0 0 0 0 0 0 0 0 0 0 0 0 0 0 0 0 0 127 0" result="hardAlpha"/>
<feMorphology radius="1.46045" operator="dilate" in="SourceAlpha" result="effect3_innerShadow_3675_125354"/>
<feOffset dx="-0.730227" dy="0.730227"/>
<feGaussianBlur stdDeviation="0.365113"/>
<feComposite in2="hardAlpha" operator="arithmetic" k2="-1" k3="1"/>
<feColorMatrix type="matrix" values="0 0 0 0 1 0 0 0 0 1 0 0 0 0 1 0 0 0 0.35 0"/>
<feBlend mode="normal" in2="shape" result="effect3_innerShadow_3675_125354"/>
</filter>
</defs>
</svg>
