<svg width="15" height="15" viewBox="0 0 15 15" fill="none" xmlns="http://www.w3.org/2000/svg">
<g clip-path="url(#clip0_5993_28423)">
<path fill-rule="evenodd" clip-rule="evenodd" d="M2.80469 2.8125C2.28692 2.8125 1.86719 3.23223 1.86719 3.75V12.1875C1.86719 12.7053 2.28692 13.125 2.80469 13.125H12.1797C12.6975 13.125 13.1172 12.7053 13.1172 12.1875V3.75C13.1172 3.23223 12.6975 2.8125 12.1797 2.8125H2.80469ZM0.929688 3.75C0.929688 2.71447 1.76915 1.875 2.80469 1.875H12.1797C13.2152 1.875 14.0547 2.71447 14.0547 3.75V12.1875C14.0547 13.223 13.2152 14.0625 12.1797 14.0625H2.80469C1.76915 14.0625 0.929688 13.223 0.929688 12.1875V3.75Z" fill="#1A2849"/>
<path d="M8.67188 7.5C9.0602 7.5 9.375 7.1852 9.375 6.79688C9.375 6.40855 9.0602 6.09375 8.67188 6.09375C8.28355 6.09375 7.96875 6.40855 7.96875 6.79688C7.96875 7.1852 8.28355 7.5 8.67188 7.5Z" fill="#1A2849"/>
<path d="M11.0156 7.5C11.404 7.5 11.7188 7.1852 11.7188 6.79688C11.7188 6.40855 11.404 6.09375 11.0156 6.09375C10.6273 6.09375 10.3125 6.40855 10.3125 6.79688C10.3125 7.1852 10.6273 7.5 11.0156 7.5Z" fill="#1A2849"/>
<path d="M8.67188 9.84375C9.0602 9.84375 9.375 9.52895 9.375 9.14063C9.375 8.7523 9.0602 8.4375 8.67188 8.4375C8.28355 8.4375 7.96875 8.7523 7.96875 9.14063C7.96875 9.52895 8.28355 9.84375 8.67188 9.84375Z" fill="#1A2849"/>
<path d="M11.0156 9.84375C11.404 9.84375 11.7188 9.52895 11.7188 9.14063C11.7188 8.7523 11.404 8.4375 11.0156 8.4375C10.6273 8.4375 10.3125 8.7523 10.3125 9.14063C10.3125 9.52895 10.6273 9.84375 11.0156 9.84375Z" fill="#1A2849"/>
<path d="M3.98437 9.84375C4.3727 9.84375 4.6875 9.52895 4.6875 9.14063C4.6875 8.7523 4.3727 8.4375 3.98437 8.4375C3.59605 8.4375 3.28125 8.7523 3.28125 9.14063C3.28125 9.52895 3.59605 9.84375 3.98437 9.84375Z" fill="#1A2849"/>
<path d="M6.32813 9.84375C6.71645 9.84375 7.03125 9.52895 7.03125 9.14063C7.03125 8.7523 6.71645 8.4375 6.32813 8.4375C5.9398 8.4375 5.625 8.7523 5.625 9.14063C5.625 9.52895 5.9398 9.84375 6.32813 9.84375Z" fill="#1A2849"/>
<path d="M3.98437 12.1875C4.3727 12.1875 4.6875 11.8727 4.6875 11.4844C4.6875 11.096 4.3727 10.7812 3.98437 10.7812C3.59605 10.7812 3.28125 11.096 3.28125 11.4844C3.28125 11.8727 3.59605 12.1875 3.98437 12.1875Z" fill="#1A2849"/>
<path d="M6.32813 12.1875C6.71645 12.1875 7.03125 11.8727 7.03125 11.4844C7.03125 11.096 6.71645 10.7812 6.32813 10.7812C5.9398 10.7812 5.625 11.096 5.625 11.4844C5.625 11.8727 5.9398 12.1875 6.32813 12.1875Z" fill="#1A2849"/>
<path d="M8.67188 12.1875C9.0602 12.1875 9.375 11.8727 9.375 11.4844C9.375 11.096 9.0602 10.7812 8.67188 10.7812C8.28355 10.7812 7.96875 11.096 7.96875 11.4844C7.96875 11.8727 8.28355 12.1875 8.67188 12.1875Z" fill="#1A2849"/>
<path fill-rule="evenodd" clip-rule="evenodd" d="M3.75 0.9375C4.00888 0.9375 4.21875 1.14737 4.21875 1.40625V2.34375C4.21875 2.60263 4.00888 2.8125 3.75 2.8125C3.49112 2.8125 3.28125 2.60263 3.28125 2.34375V1.40625C3.28125 1.14737 3.49112 0.9375 3.75 0.9375Z" fill="#1A2849"/>
<path fill-rule="evenodd" clip-rule="evenodd" d="M11.25 0.9375C11.5089 0.9375 11.7188 1.14737 11.7188 1.40625V2.34375C11.7188 2.60263 11.5089 2.8125 11.25 2.8125C10.9911 2.8125 10.7812 2.60263 10.7812 2.34375V1.40625C10.7812 1.14737 10.9911 0.9375 11.25 0.9375Z" fill="#1A2849"/>
<path fill-rule="evenodd" clip-rule="evenodd" d="M1.40625 4.21875H13.5938V5.15625H1.40625V4.21875Z" fill="#1A2849"/>
</g>
<defs>
<clipPath id="clip0_5993_28423">
<rect width="15" height="15" fill="white"/>
</clipPath>
</defs>
</svg>
