<svg width="20" height="20" viewBox="0 0 32 32" fill="none" xmlns="http://www.w3.org/2000/svg">
<path fill-rule="evenodd" clip-rule="evenodd" d="M8.18357 8.34031C8.56895 7.95492 9.19378 7.95492 9.57916 8.34031L23.3948 22.1559C23.7802 22.5413 23.7802 23.1662 23.3948 23.5515C23.0094 23.9369 22.3846 23.9369 21.9992 23.5515L8.18357 9.7359C7.79819 9.35051 7.79819 8.72569 8.18357 8.34031Z" fill="#ECF0FA"/>
<path fill-rule="evenodd" clip-rule="evenodd" d="M23.3948 8.34031C23.7802 8.72569 23.7802 9.35051 23.3948 9.7359L9.57916 23.5515C9.19378 23.9369 8.56895 23.9369 8.18357 23.5515C7.79819 23.1662 7.79819 22.5413 8.18357 22.1559L21.9992 8.34031C22.3846 7.95492 23.0094 7.95492 23.3948 8.34031Z" fill="#ECF0FA"/>
</svg>
