<svg width="24" height="24" viewBox="0 0 24 24" fill="none" xmlns="http://www.w3.org/2000/svg">
<path id="Vector" d="M21.6632 23.4902L13.4416 15.2686C12.7891 15.7906 12.0387 16.2039 11.1905 16.5084C10.3422 16.8129 9.43958 16.9651 8.48257 16.9651C6.1118 16.9651 4.10557 16.1439 2.46386 14.5013C0.822157 12.8587 0.000870008 10.8525 0 8.48257C0 6.1118 0.821287 4.10557 2.46386 2.46386C4.10644 0.822157 6.11267 0.000870008 8.48257 0C10.8533 0 12.86 0.821287 14.5026 2.46386C16.1452 4.10644 16.966 6.11267 16.9651 8.48257C16.9651 9.43958 16.8129 10.3422 16.5084 11.1905C16.2039 12.0387 15.7906 12.7891 15.2686 13.4416L23.4902 21.6632L21.6632 23.4902ZM8.48257 14.3551C10.1138 14.3551 11.5006 13.7844 12.643 12.643C13.7853 11.5015 14.356 10.1147 14.3551 8.48257C14.3551 6.85131 13.7844 5.46495 12.643 4.3235C11.5015 3.18205 10.1147 2.61089 8.48257 2.61002C6.85131 2.61002 5.46495 3.18118 4.3235 4.3235C3.18205 5.46582 2.61089 6.85218 2.61002 8.48257C2.61002 10.1138 3.18118 11.5006 4.3235 12.643C5.46582 13.7853 6.85218 14.356 8.48257 14.3551Z" fill="#9A9A9A"/>
</svg>
