<svg width="161" height="65" viewBox="0 0 161 65" fill="none" xmlns="http://www.w3.org/2000/svg">
<g clip-path="url(#clip0_5201_38172)">
<path d="M49 16H145.5C154.06 16 161 22.94 161 31.5C161 40.06 154.06 47 145.5 47H49V16Z" fill="url(#paint0_linear_5201_38172)"/>
<g filter="url(#filter0_d_5201_38172)">
<path d="M32.5 59C47.6878 59 60 46.6878 60 31.5C60 16.3122 47.6878 4 32.5 4C17.3122 4 5 16.3122 5 31.5C5 46.6878 17.3122 59 32.5 59Z" fill="url(#paint1_linear_5201_38172)"/>
<path d="M17.9399 29.884H47.0579V33.119H17.9399V29.884Z" fill="white"/>
<path d="M30.8818 16.9399H34.1178V46.0569H30.8818V16.9399Z" fill="white"/>
</g>
</g>
<defs>
<filter id="filter0_d_5201_38172" x="0.2" y="0.4" width="64.6" height="64.6" filterUnits="userSpaceOnUse" color-interpolation-filters="sRGB">
<feFlood flood-opacity="0" result="BackgroundImageFix"/>
<feColorMatrix in="SourceAlpha" type="matrix" values="0 0 0 0 0 0 0 0 0 0 0 0 0 0 0 0 0 0 127 0" result="hardAlpha"/>
<feOffset dy="1.2"/>
<feGaussianBlur stdDeviation="2.4"/>
<feComposite in2="hardAlpha" operator="out"/>
<feColorMatrix type="matrix" values="0 0 0 0 0 0 0 0 0 0 0 0 0 0 0 0 0 0 0.1 0"/>
<feBlend mode="normal" in2="BackgroundImageFix" result="effect1_dropShadow_5201_38172"/>
<feBlend mode="normal" in="SourceGraphic" in2="effect1_dropShadow_5201_38172" result="shape"/>
</filter>
<linearGradient id="paint0_linear_5201_38172" x1="49" y1="47.478" x2="159.142" y2="53.008" gradientUnits="userSpaceOnUse">
<stop stop-color="#FF3478"/>
<stop offset="1" stop-color="#FF83AD"/>
</linearGradient>
<linearGradient id="paint1_linear_5201_38172" x1="5" y1="59.849" x2="59.213" y2="60.602" gradientUnits="userSpaceOnUse">
<stop stop-color="#FF3478"/>
<stop offset="1" stop-color="#FF83AD"/>
</linearGradient>
<clipPath id="clip0_5201_38172">
<rect width="161" height="65" fill="white"/>
</clipPath>
</defs>
</svg>
