<svg xmlns="http://www.w3.org/2000/svg" width="23" height="24" viewBox="0 0 23 24" fill="none">
<path d="M11.079 2.30469C7.25614 2.30469 4.1543 5.09665 4.1543 8.53693C4.1543 14.0767 11.079 21.6939 11.079 21.6939C11.079 21.6939 18.0037 14.0767 18.0037 8.53693C18.0037 5.09665 14.9019 2.30469 11.079 2.30469ZM11.079 11.9993C10.5312 11.9993 9.99565 11.8368 9.54015 11.5325C9.08464 11.2281 8.72962 10.7955 8.51997 10.2894C8.31033 9.78326 8.25547 9.22633 8.36235 8.68903C8.46923 8.15172 8.73303 7.65817 9.12041 7.2708C9.50778 6.88342 10.0013 6.61962 10.5386 6.51274C11.0759 6.40586 11.6329 6.46072 12.139 6.67036C12.6451 6.88001 13.0777 7.23503 13.3821 7.69054C13.6864 8.14604 13.8489 8.68157 13.8489 9.2294C13.8481 9.96378 13.556 10.6678 13.0367 11.1871C12.5175 11.7064 11.8134 11.9985 11.079 11.9993Z" fill="#404446"/>
</svg>