<svg xmlns="http://www.w3.org/2000/svg" width="13" height="11" viewBox="0 0 13 11" fill="none">
<path d="M6.63398 10.5274C5.30859 10.5274 4.06445 10.0119 3.13008 9.08011C2.19316 8.14573 1.67773 6.90413 1.67773 5.58128V4.82464C1.67773 4.6012 1.86055 4.41839 2.08398 4.41839C2.30742 4.41839 2.49023 4.6012 2.49023 4.82464V5.58128C2.49023 7.86136 4.34883 9.71487 6.63398 9.71487C7.8959 9.71233 9.0791 9.14866 9.87383 8.16604C10.016 7.99085 10.2699 7.96546 10.4451 8.10511C10.6203 8.24729 10.6457 8.5012 10.5061 8.6764C9.55391 9.85198 8.14473 10.5248 6.63398 10.5274ZM11.1713 6.73401C10.9479 6.73401 10.765 6.5512 10.765 6.32776V5.57112C10.765 3.29104 8.90645 1.43753 6.62129 1.43753C6.61875 1.43753 6.61875 1.43753 6.61621 1.43753C5.34922 1.43753 4.17109 2.00374 3.38145 2.99397C3.2418 3.16917 2.98535 3.1971 2.81016 3.05745C2.63496 2.9178 2.60703 2.66136 2.74668 2.48616C3.20879 1.90725 3.80547 1.43245 4.4707 1.11253C5.13594 0.792606 5.87988 0.622489 6.62129 0.625028C9.35332 0.625028 11.5775 2.84417 11.5775 5.57112V6.32776C11.5775 6.5512 11.3947 6.73401 11.1713 6.73401Z" fill="#6C7072"/>
<path d="M3.23115 5.98276C3.12959 5.98276 3.02803 5.94467 2.94932 5.87104L2.06826 5.02807L1.23291 5.86342C1.07549 6.02084 0.816504 6.02084 0.659082 5.86342C0.50166 5.706 0.50166 5.44701 0.659082 5.28959L1.77627 4.17241C1.93115 4.01498 2.18506 4.01244 2.34502 4.16733L3.51299 5.28451C3.67549 5.4394 3.68057 5.69584 3.52568 5.85834C3.44443 5.93959 3.33779 5.98276 3.23115 5.98276Z" fill="#6C7072"/>
<path d="M11.2042 7.10007C11.1026 7.10007 11.001 7.06198 10.9223 6.98835L9.75437 5.87116C9.59187 5.71628 9.58679 5.45983 9.74167 5.29733C9.89655 5.13483 10.153 5.12976 10.3155 5.28464L11.1966 6.12761L12.0319 5.29226C12.1893 5.13483 12.4483 5.13483 12.6057 5.29226C12.7632 5.44968 12.7632 5.70866 12.6057 5.86608L11.4885 6.98327C11.4124 7.05944 11.3083 7.10007 11.2042 7.10007Z" fill="#6C7072"/>
</svg>
