<svg xmlns="http://www.w3.org/2000/svg" width="15" height="14" viewBox="0 0 15 14" fill="none">
<path fill-rule="evenodd" clip-rule="evenodd" d="M7.79985 0.866211V3.24871H6.46289V0.866211H7.79985Z" fill="#415574"/>
<path fill-rule="evenodd" clip-rule="evenodd" d="M7.79985 10.6133V12.9958H6.46289V10.6133H7.79985Z" fill="#415574"/>
<path fill-rule="evenodd" clip-rule="evenodd" d="M4.53082 3.14936C5.30033 2.64957 6.20504 2.38281 7.13053 2.38281C8.37157 2.38281 9.56178 2.86202 10.4393 3.71501C11.3169 4.56801 11.8099 5.72491 11.8099 6.93123C11.8099 7.83082 11.5354 8.71021 11.0213 9.45819C10.5071 10.2062 9.77628 10.7892 8.92124 11.1334C8.0662 11.4777 7.12534 11.5678 6.21763 11.3923C5.30993 11.2167 4.47614 10.7836 3.82173 10.1474C3.16731 9.51134 2.72164 8.70089 2.54109 7.81858C2.36053 6.93628 2.4532 6.02174 2.80737 5.19063C3.16154 4.35951 3.7613 3.64915 4.53082 3.14936ZM7.13053 3.68236C6.46947 3.68236 5.82325 3.8729 5.27359 4.22989C4.72394 4.58688 4.29554 5.09429 4.04256 5.68794C3.78958 6.28159 3.72339 6.93483 3.85236 7.56505C3.98132 8.19527 4.29965 8.77416 4.7671 9.22853C5.23454 9.68289 5.8301 9.99231 6.47846 10.1177C7.12682 10.243 7.79887 10.1787 8.40961 9.93279C9.02035 9.68689 9.54236 9.27048 9.90963 8.7362C10.2769 8.20193 10.4729 7.5738 10.4729 6.93123C10.4729 6.06958 10.1208 5.24321 9.49396 4.63393C8.86714 4.02465 8.01699 3.68236 7.13053 3.68236Z" fill="#415574"/>
<path fill-rule="evenodd" clip-rule="evenodd" d="M10.918 6.28125H13.3691V7.5808H10.918V6.28125Z" fill="#415574"/>
<path fill-rule="evenodd" clip-rule="evenodd" d="M0.890625 6.28125H3.34172V7.5808H0.890625V6.28125Z" fill="#415574"/>
</svg>