<svg xmlns="http://www.w3.org/2000/svg" width="20" height="20" viewBox="0 0 24 24" fill="none">
<path d="M4.875 23.25H3.375C3.07663 23.25 2.79048 23.1315 2.5795 22.9205C2.36853 22.7095 2.25 22.4234 2.25 22.125V15.375C2.25 15.0766 2.36853 14.7905 2.5795 14.5795C2.79048 14.3685 3.07663 14.25 3.375 14.25H4.875C5.17337 14.25 5.45952 14.3685 5.6705 14.5795C5.88147 14.7905 6 15.0766 6 15.375V22.125C6 22.4234 5.88147 22.7095 5.6705 22.9205C5.45952 23.1315 5.17337 23.25 4.875 23.25Z" fill="#404446"/>
<path d="M15.375 23.25H13.875C13.5766 23.25 13.2905 23.1315 13.0795 22.9205C12.8685 22.7095 12.75 22.4234 12.75 22.125V10.875C12.75 10.5766 12.8685 10.2905 13.0795 10.0795C13.2905 9.86853 13.5766 9.75 13.875 9.75H15.375C15.6734 9.75 15.9595 9.86853 16.1705 10.0795C16.3815 10.2905 16.5 10.5766 16.5 10.875V22.125C16.5 22.4234 16.3815 22.7095 16.1705 22.9205C15.9595 23.1315 15.6734 23.25 15.375 23.25Z" fill="#404446"/>
<path d="M20.625 23.25H19.125C18.8266 23.25 18.5405 23.1315 18.3295 22.9205C18.1185 22.7095 18 22.4234 18 22.125V5.625C18 5.32663 18.1185 5.04048 18.3295 4.8295C18.5405 4.61853 18.8266 4.5 19.125 4.5H20.625C20.9234 4.5 21.2095 4.61853 21.4205 4.8295C21.6315 5.04048 21.75 5.32663 21.75 5.625V22.125C21.75 22.4234 21.6315 22.7095 21.4205 22.9205C21.2095 23.1315 20.9234 23.25 20.625 23.25Z" fill="#404446"/>
<path d="M10.125 23.25H8.625C8.32663 23.25 8.04048 23.1315 7.8295 22.9205C7.61853 22.7095 7.5 22.4234 7.5 22.125V1.875C7.5 1.57663 7.61853 1.29048 7.8295 1.0795C8.04048 0.868526 8.32663 0.75 8.625 0.75H10.125C10.4234 0.75 10.7095 0.868526 10.9205 1.0795C11.1315 1.29048 11.25 1.57663 11.25 1.875V22.125C11.25 22.4234 11.1315 22.7095 10.9205 22.9205C10.7095 23.1315 10.4234 23.25 10.125 23.25Z" fill="#404446"/>
</svg>