<svg xmlns="http://www.w3.org/2000/svg" width="31" height="31" viewBox="0 0 31 31" fill="none">
  <path fill-rule="evenodd" clip-rule="evenodd" d="M18.8753 8.66871C18.8191 8.20555 19.1489 7.78446 19.6121 7.72818L25.4825 7.01492C25.9457 6.95864 26.3668 7.28849 26.4231 7.75166L27.1363 13.6221C27.1926 14.0853 26.8627 14.5064 26.3996 14.5626C25.9364 14.6189 25.5153 14.2891 25.459 13.8259L24.8477 8.79408L19.8159 9.40545C19.3527 9.46173 18.9316 9.13188 18.8753 8.66871Z" fill="#4877F0"/>
  <path fill-rule="evenodd" clip-rule="evenodd" d="M25.3688 8.1288C25.7361 8.41652 25.8006 8.94751 25.5129 9.31481L19.1876 17.3898C19.1875 17.3898 19.1875 17.3898 19.1875 17.3899C18.9823 17.6519 18.7274 17.8709 18.4376 18.0345C18.1476 18.1981 17.8283 18.3029 17.4979 18.3431C17.1675 18.3832 16.8323 18.3579 16.5117 18.2685C16.1911 18.1791 15.8912 18.0274 15.6291 17.8221L12.6465 15.4858L12.6465 15.4857C12.5591 15.4173 12.4592 15.3668 12.3523 15.337C12.2454 15.3072 12.1337 15.2987 12.0235 15.3121C11.9134 15.3255 11.807 15.3604 11.7103 15.415C11.6137 15.4695 11.5287 15.5425 11.4603 15.6299L11.4603 15.6299L5.87163 22.7645C5.58391 23.1318 5.05292 23.1963 4.68562 22.9086C4.31832 22.6208 4.2538 22.0898 4.54152 21.7225L10.1301 14.5881C10.3353 14.326 10.5902 14.107 10.8801 13.9434C11.17 13.7798 11.4893 13.675 11.8198 13.6348C12.1502 13.5947 12.4853 13.62 12.806 13.7094C13.1266 13.7988 13.4265 13.9505 13.6885 14.1558L16.6711 16.4921L16.6712 16.4921C16.7585 16.5606 16.8585 16.6111 16.9654 16.6409C17.0723 16.6707 17.184 16.6792 17.2941 16.6658C17.4043 16.6524 17.5107 16.6174 17.6073 16.5629C17.704 16.5084 17.7889 16.4354 17.8573 16.348L17.8574 16.3479L24.1828 8.2729C24.4705 7.9056 25.0015 7.84109 25.3688 8.1288Z" fill="#4777F0"/>
</svg>