<svg width="433" height="433" viewBox="0 0 433 433" fill="none" xmlns="http://www.w3.org/2000/svg">
<g filter="url(#filter0_d_4672_2041)">
<path d="M218.5 3C101.329 3 6 98.3287 6 215.5C6 332.671 101.329 428 218.5 428C335.671 428 431 332.671 431 215.5C431 98.3287 335.671 3 218.5 3ZM218.5 329.831C214.459 329.831 210.508 328.633 207.148 326.388C203.788 324.142 201.169 320.951 199.623 317.218C198.076 313.484 197.672 309.376 198.46 305.412C199.248 301.449 201.194 297.808 204.052 294.95C206.909 292.093 210.55 290.147 214.514 289.358C218.477 288.57 222.586 288.975 226.319 290.521C230.053 292.068 233.244 294.686 235.489 298.047C237.734 301.407 238.933 305.357 238.933 309.398C238.933 314.818 236.78 320.015 232.948 323.846C229.116 327.678 223.919 329.831 218.5 329.831ZM240.69 124.329L234.826 248.969C234.826 253.304 233.104 257.462 230.038 260.527C226.973 263.593 222.815 265.315 218.48 265.315C214.144 265.315 209.987 263.593 206.921 260.527C203.856 257.462 202.133 253.304 202.133 248.969L196.269 124.391V124.34C196.141 121.345 196.619 118.356 197.677 115.552C198.734 112.748 200.348 110.187 202.421 108.022C204.494 105.858 206.984 104.136 209.74 102.96C212.496 101.783 215.462 101.177 218.459 101.177C221.456 101.177 224.422 101.783 227.178 102.96C229.935 104.136 232.424 105.858 234.497 108.022C236.571 110.187 238.184 112.748 239.242 115.552C240.299 118.356 240.778 121.345 240.649 124.34L240.69 124.329Z" fill="url(#paint0_linear_4672_2041)" shape-rendering="crispEdges"/>
</g>
<defs>
<filter id="filter0_d_4672_2041" x="0" y="0" width="433" height="433" filterUnits="userSpaceOnUse" color-interpolation-filters="sRGB">
<feFlood flood-opacity="0" result="BackgroundImageFix"/>
<feColorMatrix in="SourceAlpha" type="matrix" values="0 0 0 0 0 0 0 0 0 0 0 0 0 0 0 0 0 0 127 0" result="hardAlpha"/>
<feOffset dx="-2" dy="1"/>
<feGaussianBlur stdDeviation="2"/>
<feComposite in2="hardAlpha" operator="out"/>
<feColorMatrix type="matrix" values="0 0 0 0 0 0 0 0 0 0 0 0 0 0 0 0 0 0 0.25 0"/>
<feBlend mode="normal" in2="BackgroundImageFix" result="effect1_dropShadow_4672_2041"/>
<feBlend mode="normal" in="SourceGraphic" in2="effect1_dropShadow_4672_2041" result="shape"/>
</filter>
<linearGradient id="paint0_linear_4672_2041" x1="13.4128" y1="3" x2="444.148" y2="274.202" gradientUnits="userSpaceOnUse">
<stop offset="0.418137" stop-color="#111F3F"/>
<stop offset="1" stop-color="#1A2849" stop-opacity="0.75"/>
</linearGradient>
</defs>
</svg>
