<svg width="45" height="45" viewBox="0 0 45 45" fill="none" xmlns="http://www.w3.org/2000/svg">
<g filter="url(#filter0_d_5057_59225)">
<path d="M24.5 3C14.2992 3 6 11.2992 6 21.5C6 31.7008 14.2992 40 24.5 40C34.7008 40 43 31.7008 43 21.5C43 11.2992 34.7008 3 24.5 3ZM24.5 31.4535C24.1482 31.4535 23.8043 31.3492 23.5117 31.1537C23.2192 30.9583 22.9912 30.6805 22.8566 30.3554C22.7219 30.0304 22.6867 29.6727 22.7553 29.3276C22.824 28.9826 22.9934 28.6656 23.2422 28.4169C23.4909 28.1681 23.8079 27.9987 24.153 27.93C24.498 27.8614 24.8557 27.8966 25.1807 28.0312C25.5058 28.1659 25.7836 28.3939 25.9791 28.6864C26.1745 28.9789 26.2788 29.3229 26.2788 29.6747C26.2788 30.1465 26.0914 30.5989 25.7578 30.9325C25.4242 31.2661 24.9718 31.4535 24.5 31.4535ZM26.4318 13.5628L25.9213 24.4137C25.9213 24.7912 25.7714 25.1531 25.5045 25.42C25.2376 25.6869 24.8756 25.8368 24.4982 25.8368C24.1208 25.8368 23.7588 25.6869 23.492 25.42C23.2251 25.1531 23.0751 24.7912 23.0751 24.4137L22.5646 13.5681V13.5637C22.5534 13.303 22.5951 13.0428 22.6871 12.7986C22.7792 12.5545 22.9197 12.3315 23.1002 12.1431C23.2807 11.9547 23.4974 11.8048 23.7374 11.7024C23.9773 11.6 24.2355 11.5471 24.4964 11.5471C24.7573 11.5471 25.0156 11.6 25.2555 11.7024C25.4955 11.8048 25.7122 11.9547 25.8927 12.1431C26.0732 12.3315 26.2137 12.5545 26.3057 12.7986C26.3978 13.0428 26.4395 13.303 26.4283 13.5637L26.4318 13.5628Z" fill="url(#paint0_linear_5057_59225)" shape-rendering="crispEdges"/>
</g>
<defs>
<filter id="filter0_d_5057_59225" x="0" y="0" width="45" height="45" filterUnits="userSpaceOnUse" color-interpolation-filters="sRGB">
<feFlood flood-opacity="0" result="BackgroundImageFix"/>
<feColorMatrix in="SourceAlpha" type="matrix" values="0 0 0 0 0 0 0 0 0 0 0 0 0 0 0 0 0 0 127 0" result="hardAlpha"/>
<feOffset dx="-2" dy="1"/>
<feGaussianBlur stdDeviation="2"/>
<feComposite in2="hardAlpha" operator="out"/>
<feColorMatrix type="matrix" values="0 0 0 0 0 0 0 0 0 0 0 0 0 0 0 0 0 0 0.25 0"/>
<feBlend mode="normal" in2="BackgroundImageFix" result="effect1_dropShadow_5057_59225"/>
<feBlend mode="normal" in="SourceGraphic" in2="effect1_dropShadow_5057_59225" result="shape"/>
</filter>
<linearGradient id="paint0_linear_5057_59225" x1="6.64535" y1="3" x2="44.1447" y2="26.6105" gradientUnits="userSpaceOnUse">
<stop offset="0.418137" stop-color="#111F3F"/>
<stop offset="1" stop-color="#1A2849" stop-opacity="0.75"/>
</linearGradient>
</defs>
</svg>
