<svg width="1838" height="1838" viewBox="0 0 1838 1838" fill="none" xmlns="http://www.w3.org/2000/svg">
<circle cx="921" cy="918" r="915" fill="white"/>
<g filter="url(#filter0_d_5730_44144)">
<path d="M921 3C416.474 3 6 413.474 6 918C6 1422.53 416.474 1833 921 1833C1425.53 1833 1836 1422.53 1836 918C1836 413.474 1425.53 3 921 3ZM921 1410.3C903.599 1410.3 886.589 1405.14 872.12 1395.47C857.652 1385.8 846.375 1372.06 839.716 1355.98C833.057 1339.91 831.315 1322.22 834.71 1305.15C838.104 1288.08 846.484 1272.41 858.788 1260.1C871.093 1247.8 886.769 1239.42 903.836 1236.03C920.902 1232.63 938.592 1234.37 954.669 1241.03C970.745 1247.69 984.486 1258.97 994.153 1273.44C1003.82 1287.9 1008.98 1304.91 1008.98 1322.32C1008.98 1345.65 999.711 1368.03 983.212 1384.53C966.712 1401.03 944.334 1410.3 921 1410.3ZM1016.55 525.43L991.297 1062.11C991.297 1080.78 983.881 1098.68 970.681 1111.88C957.482 1125.08 939.579 1132.5 920.912 1132.5C902.245 1132.5 884.342 1125.08 871.143 1111.88C857.943 1098.68 850.527 1080.78 850.527 1062.11L825.277 525.694V525.474C824.723 512.581 826.785 499.71 831.337 487.636C835.889 475.561 842.838 464.532 851.765 455.214C860.692 445.896 871.412 438.481 883.281 433.415C895.149 428.349 907.92 425.737 920.824 425.737C933.728 425.737 946.499 428.349 958.367 433.415C970.236 438.481 980.956 445.896 989.883 455.214C998.81 464.532 1005.76 475.561 1010.31 487.636C1014.86 499.71 1016.92 512.581 1016.37 525.474L1016.55 525.43Z" fill="url(#paint0_linear_5730_44144)" shape-rendering="crispEdges"/>
</g>
<defs>
<filter id="filter0_d_5730_44144" x="0" y="0" width="1838" height="1838" filterUnits="userSpaceOnUse" color-interpolation-filters="sRGB">
<feFlood flood-opacity="0" result="BackgroundImageFix"/>
<feColorMatrix in="SourceAlpha" type="matrix" values="0 0 0 0 0 0 0 0 0 0 0 0 0 0 0 0 0 0 127 0" result="hardAlpha"/>
<feOffset dx="-2" dy="1"/>
<feGaussianBlur stdDeviation="2"/>
<feComposite in2="hardAlpha" operator="out"/>
<feColorMatrix type="matrix" values="0 0 0 0 0 0 0 0 0 0 0 0 0 0 0 0 0 0 0.25 0"/>
<feBlend mode="normal" in2="BackgroundImageFix" result="effect1_dropShadow_5730_44144"/>
<feBlend mode="normal" in="SourceGraphic" in2="effect1_dropShadow_5730_44144" result="shape"/>
</filter>
<linearGradient id="paint0_linear_5730_44144" x1="37.9186" y1="3.00002" x2="1892.61" y2="1170.76" gradientUnits="userSpaceOnUse">
<stop offset="0.418137" stop-color="#111F3F"/>
<stop offset="1" stop-color="#1A2849" stop-opacity="0.75"/>
</linearGradient>
</defs>
</svg>
