<svg width="42" height="42" viewBox="0 0 42 42" fill="none" xmlns="http://www.w3.org/2000/svg">
<path fill-rule="evenodd" clip-rule="evenodd" d="M41.2957 21C41.2957 32.598 32.0515 42 20.6482 42C9.24423 42 0 32.598 0 21C0 9.40202 9.24423 0 20.6482 0C32.0515 0 41.2957 9.40202 41.2957 21Z" fill="url(#paint0_linear_3226_20348)"/>
<path fill-rule="evenodd" clip-rule="evenodd" d="M28.3048 16.7425C28.3048 21.0187 24.7673 24.4857 20.4035 24.4857C16.0397 24.4857 12.5022 21.0187 12.5022 16.7425C12.5022 12.4664 16.0397 9 20.4035 9C24.7673 9 28.3048 12.4664 28.3048 16.7425ZM5.89827 33.503C9.56574 30.0756 14.7239 27.9379 20.4429 27.9379C26.1619 27.9379 31.3201 30.0756 34.9876 33.503C31.3201 36.931 26.1619 39.0688 20.4429 39.0688C14.7239 39.0688 9.56574 36.931 5.89827 33.503Z" fill="#FEFEFE"/>
<defs>
<linearGradient id="paint0_linear_3226_20348" x1="0" y1="0" x2="0" y2="42" gradientUnits="userSpaceOnUse">
<stop stop-color="#A3ABB9"/>
<stop offset="1" stop-color="#BDBDBD"/>
</linearGradient>
</defs>
</svg>
