<?xml version="1.0" encoding="UTF-8"?><svg id="a" xmlns="http://www.w3.org/2000/svg" viewBox="0 0 142 30"><defs><style>.c{fill:#022c79;}</style></defs><polygon points="20.957 4.638 17.903 4.638 17.903 25.264 20.957 25.264 20.957 15.104 23.906 15.104 23.906 12.508 20.957 12.508 20.957 4.638"/><path d="m12.433,9.271v-3.055h-3.077v3.055c0,3.352-1.289,7.547-4.908,9.27l1.803,2.514c2.083-1.032,3.689-3.012,4.654-5.731.899,2.502,2.398,4.35,4.344,5.353l1.828-2.446c-2.908-1.448-4.645-4.798-4.645-8.958Z"/><path d="m31.421,12.73c.955,1.747,2.548,2.995,4.616,3.616l1.429-2.412c-2.783-.834-4.484-2.861-4.565-5.433h3.958v-2.508h-11.108v2.508h4.025c-.079,2.86-1.839,5.146-4.722,6.122l1.5,2.433c2.203-.721,3.883-2.215,4.867-4.326Z"/><path d="m34.694,17.4c-4.345,0-6.94,1.524-6.94,4.077,0,2.524,2.595,4.032,6.94,4.032s6.918-1.508,6.918-4.032-2.651-4.077-6.918-4.077Zm0,2.444c2.537,0,3.824.549,3.824,1.633,0,1.069-1.286,1.611-3.824,1.611-2.552,0-3.845-.542-3.845-1.611,0-1.084,1.294-1.633,3.845-1.633Z"/><polygon points="41.345 4.638 38.345 4.638 38.337 16.949 41.345 16.949 41.345 11.903 44.029 11.903 44.029 9.351 41.345 9.351 41.345 4.638"/><path d="m56.754,11.865c-2.354.537-4.762.789-8.039.842v-6.892h-2.996v9.466h1.813c3.859,0,6.731-.267,9.601-.892l-.379-2.524Z"/><path d="m47.779,25.019h13.616v-8.064h-13.616v8.064Zm10.627-5.603v3.163h-7.617v-3.163h7.617Z"/><rect x="58.341" y="4.615" width="3.055" height="11.426"/><path class="c" d="m72.014,6.091v4.847h3.344v-4.847h3.521v14.562h-10.385V6.091h3.521Zm0,11.738h3.344v-4.135h-3.344v4.135Zm12.806-13.339v20.965h-3.564V4.49h3.564Z"/><path class="c" d="m94.768,8.648c0,4.047,1.034,7.848,4.687,9.471l-2.112,2.824c-2.156-1.023-3.543-2.802-4.379-5.047-.836,2.4-2.288,4.312-4.488,5.402l-2.2-2.868c3.74-1.712,4.906-5.758,4.906-9.782v-2.646h3.587v2.646Zm9.461-4.157v20.942h-3.564v-11.827h-3.498v-2.868h3.498v-6.247h3.564Z"/><polygon class="c" points="110.071 25.433 113.489 17.788 107.461 4.822 111.461 4.822 115.309 13.809 119.059 4.822 123.073 4.822 113.924 25.433 110.071 25.433"/><path class="c" d="m130.348,18.876c-3.91,0-7.093-3.182-7.093-7.093s3.182-7.093,7.093-7.093c4.106,0,7.204,3.236,7.204,7.527v6.336h-3.052v-1.645l-.241.244c-1.099,1.111-2.488,1.723-3.91,1.723Zm0-10.814c-2.061,0-3.739,1.678-3.739,3.74s1.678,3.739,3.739,3.739,3.74-1.678,3.74-3.739-1.678-3.74-3.74-3.74Z"/></svg>