<svg width="68" height="68" viewBox="0 0 68 68" fill="none" xmlns="http://www.w3.org/2000/svg">
<g id="icon / ionicons / outline / search-circle-outline" opacity="0.7" filter="url(#filter0_bdi_3535_25679)">
<path id="Vector (Stroke)" fill-rule="evenodd" clip-rule="evenodd" d="M27.6743 6.94159C29.586 5.66422 31.8336 4.98242 34.1328 4.98242C37.216 4.98242 40.1728 6.2072 42.3529 8.38731C44.533 10.5674 45.7578 13.5243 45.7578 16.6074C45.7578 18.9066 45.076 21.1542 43.7987 23.0659C42.5213 24.9776 40.7057 26.4677 38.5815 27.3475C36.4573 28.2274 34.1199 28.4576 31.8649 28.0091C29.6099 27.5605 27.5385 26.4533 25.9127 24.8275C24.2869 23.2018 23.1797 21.1304 22.7312 18.8753C22.2826 16.6203 22.5128 14.2829 23.3927 12.1587C24.2726 10.0345 25.7626 8.21896 27.6743 6.94159ZM34.1328 6.91992C32.2168 6.91992 30.3438 7.48808 28.7507 8.55256C27.1576 9.61704 25.916 11.13 25.1827 12.9002C24.4495 14.6703 24.2577 16.6182 24.6315 18.4974C25.0053 20.3766 25.9279 22.1027 27.2827 23.4575C28.6375 24.8123 30.3637 25.735 32.2429 26.1088C34.1221 26.4826 36.0699 26.2907 37.8401 25.5575C39.6102 24.8243 41.1232 23.5826 42.1877 21.9895C43.2522 20.3964 43.8203 18.5234 43.8203 16.6074C43.8203 14.0381 42.7997 11.5741 40.9829 9.75733C39.1662 7.94057 36.7021 6.91992 34.1328 6.91992Z" fill="white"/>
<path id="Vector (Stroke)_2" fill-rule="evenodd" clip-rule="evenodd" d="M29.7195 10.7241C30.5957 10.1387 31.6259 9.82617 32.6797 9.82617C33.3794 9.82617 34.0722 9.96399 34.7187 10.2318C35.3651 10.4995 35.9525 10.892 36.4472 11.3867C36.942 11.8815 37.3345 12.4689 37.6022 13.1153C37.87 13.7617 38.0078 14.4546 38.0078 15.1543C38.0078 16.2081 37.6953 17.2382 37.1099 18.1144C36.5244 18.9907 35.6923 19.6736 34.7187 20.0768C33.7451 20.4801 32.6738 20.5856 31.6402 20.38C30.6067 20.1745 29.6573 19.667 28.9121 18.9218C28.167 18.1767 27.6595 17.2273 27.4539 16.1938C27.2484 15.1602 27.3539 14.0889 27.7571 13.1153C28.1604 12.1417 28.8433 11.3096 29.7195 10.7241ZM32.6797 11.7637C32.0091 11.7637 31.3535 11.9625 30.796 12.3351C30.2384 12.7077 29.8038 13.2372 29.5472 13.8568C29.2905 14.4763 29.2234 15.1581 29.3542 15.8158C29.485 16.4735 29.808 17.0776 30.2822 17.5518C30.7563 18.026 31.3605 18.3489 32.0182 18.4798C32.6759 18.6106 33.3577 18.5435 33.9772 18.2868C34.5968 18.0302 35.1263 17.5956 35.4989 17.038C35.8715 16.4804 36.0703 15.8249 36.0703 15.1543C36.0703 14.709 35.9826 14.2681 35.8122 13.8568C35.6418 13.4454 35.3921 13.0716 35.0772 12.7568C34.7624 12.4419 34.3886 12.1922 33.9772 12.0218C33.5659 11.8514 33.125 11.7637 32.6797 11.7637Z" fill="white"/>
<path id="Vector (Stroke)_3" fill-rule="evenodd" clip-rule="evenodd" d="M35.1216 17.5962C35.5 17.2179 36.1133 17.2179 36.4917 17.5962L39.6619 20.7665C40.0402 21.1448 40.0402 21.7582 39.6619 22.1365C39.2836 22.5148 38.6702 22.5148 38.2919 22.1365L35.1216 18.9663C34.7433 18.5879 34.7433 17.9746 35.1216 17.5962Z" fill="white"/>
</g>
<defs>
<filter id="filter0_bdi_3535_25679" x="-124.492" y="-142.017" width="317.249" height="317.249" filterUnits="userSpaceOnUse" color-interpolation-filters="sRGB">
<feFlood flood-opacity="0" result="BackgroundImageFix"/>
<feGaussianBlur in="BackgroundImageFix" stdDeviation="71.5622"/>
<feComposite in2="SourceAlpha" operator="in" result="effect1_backgroundBlur_3535_25679"/>
<feColorMatrix in="SourceAlpha" type="matrix" values="0 0 0 0 0 0 0 0 0 0 0 0 0 0 0 0 0 0 127 0" result="hardAlpha"/>
<feOffset dy="17.5254"/>
<feGaussianBlur stdDeviation="10.9534"/>
<feComposite in2="hardAlpha" operator="out"/>
<feColorMatrix type="matrix" values="0 0 0 0 0 0 0 0 0 0 0 0 0 0 0 0 0 0 0.05 0"/>
<feBlend mode="normal" in2="effect1_backgroundBlur_3535_25679" result="effect2_dropShadow_3535_25679"/>
<feBlend mode="normal" in="SourceGraphic" in2="effect2_dropShadow_3535_25679" result="shape"/>
<feColorMatrix in="SourceAlpha" type="matrix" values="0 0 0 0 0 0 0 0 0 0 0 0 0 0 0 0 0 0 127 0" result="hardAlpha"/>
<feMorphology radius="1.46045" operator="dilate" in="SourceAlpha" result="effect3_innerShadow_3535_25679"/>
<feOffset dx="-0.730227" dy="0.730227"/>
<feGaussianBlur stdDeviation="0.365113"/>
<feComposite in2="hardAlpha" operator="arithmetic" k2="-1" k3="1"/>
<feColorMatrix type="matrix" values="0 0 0 0 1 0 0 0 0 1 0 0 0 0 1 0 0 0 0.35 0"/>
<feBlend mode="normal" in2="shape" result="effect3_innerShadow_3535_25679"/>
</filter>
</defs>
</svg>
