<svg width="24" height="24" viewBox="0 0 24 24" fill="none" xmlns="http://www.w3.org/2000/svg">
<path fill-rule="evenodd" clip-rule="evenodd" d="M11.2495 2.25001C12.5685 2.24843 13.8739 2.51519 15.0865 3.03408C16.2992 3.55303 17.3936 4.3133 18.3032 5.26863L18.3163 5.28244L19.8076 7.01737L18.6701 7.99516L17.2039 6.28945C16.4373 5.48783 15.5163 4.84956 14.4963 4.41312C13.4707 3.97423 12.3665 3.74862 11.2509 3.75001L11.2505 3.75001H11.25C6.69546 3.75001 3 7.44547 3 12C3 16.5545 6.69544 20.25 11.25 20.25M11.2495 2.25001C5.86678 2.25026 1.5 6.6172 1.5 12C1.5 17.383 5.86704 21.75 11.25 21.75H11.2501C13.2665 21.7499 15.2334 21.1248 16.8799 19.9608C18.5265 18.7968 19.7719 17.1511 20.4447 15.2502L20.6949 14.5432L19.2809 14.0427L19.0306 14.7498C18.4613 16.3584 17.4075 17.751 16.0141 18.736C14.6207 19.7209 12.9563 20.2499 11.25 20.25" fill="#757676"/>
<path d="M21.7486 3.20816V10.3121C21.7486 10.3618 21.7288 10.4095 21.6937 10.4446C21.6585 10.4798 21.6108 10.4996 21.5611 10.4996H14.4572C14.4201 10.4996 14.3838 10.4886 14.3529 10.468C14.3221 10.4474 14.298 10.4181 14.2838 10.3838C14.2696 10.3496 14.2659 10.3118 14.2731 10.2754C14.2804 10.2391 14.2983 10.2056 14.3245 10.1794L21.4284 3.0755C21.4547 3.04925 21.4881 3.03137 21.5245 3.02412C21.5609 3.01687 21.5986 3.02059 21.6329 3.03479C21.6671 3.04899 21.6964 3.07305 21.717 3.10391C21.7376 3.13477 21.7486 3.17105 21.7486 3.20816Z" fill="#757676"/>
</svg>
