<svg width="32" height="32" viewBox="0 0 32 32" fill="none" xmlns="http://www.w3.org/2000/svg">
<g id="icon / ionicons / outline / calendar-outline">
<path id="Vector (Stroke)" fill-rule="evenodd" clip-rule="evenodd" d="M6.3544 5.95454C5.27925 5.95454 4.40767 6.82612 4.40767 7.90127V25.4218C4.40767 26.497 5.27925 27.3686 6.3544 27.3686H25.8217C26.8968 27.3686 27.7684 26.497 27.7684 25.4218V7.90127C27.7684 6.82612 26.8968 5.95454 25.8217 5.95454H6.3544ZM2.46094 7.90127C2.46094 5.75097 4.2041 4.00781 6.3544 4.00781H25.8217C27.972 4.00781 29.7151 5.75097 29.7151 7.90127V25.4218C29.7151 27.5721 27.972 29.3153 25.8217 29.3153H6.3544C4.2041 29.3153 2.46094 27.5721 2.46094 25.4218V7.90127Z" fill="#979C9E"/>
<path id="Vector" d="M18.5206 15.6877C19.327 15.6877 19.9806 15.034 19.9806 14.2276C19.9806 13.4213 19.327 12.7676 18.5206 12.7676C17.7142 12.7676 17.0605 13.4213 17.0605 14.2276C17.0605 15.034 17.7142 15.6877 18.5206 15.6877Z" fill="#979C9E"/>
<path id="Vector_2" d="M23.3878 15.6877C24.1941 15.6877 24.8478 15.034 24.8478 14.2276C24.8478 13.4213 24.1941 12.7676 23.3878 12.7676C22.5814 12.7676 21.9277 13.4213 21.9277 14.2276C21.9277 15.034 22.5814 15.6877 23.3878 15.6877Z" fill="#979C9E"/>
<path id="Vector_3" d="M18.5206 20.5549C19.327 20.5549 19.9806 19.9012 19.9806 19.0948C19.9806 18.2885 19.327 17.6348 18.5206 17.6348C17.7142 17.6348 17.0605 18.2885 17.0605 19.0948C17.0605 19.9012 17.7142 20.5549 18.5206 20.5549Z" fill="#979C9E"/>
<path id="Vector_4" d="M23.3878 20.5549C24.1941 20.5549 24.8478 19.9012 24.8478 19.0948C24.8478 18.2885 24.1941 17.6348 23.3878 17.6348C22.5814 17.6348 21.9277 18.2885 21.9277 19.0948C21.9277 19.9012 22.5814 20.5549 23.3878 20.5549Z" fill="#979C9E"/>
<path id="Vector_5" d="M8.78817 20.5549C9.59453 20.5549 10.2482 19.9012 10.2482 19.0948C10.2482 18.2885 9.59453 17.6348 8.78817 17.6348C7.98181 17.6348 7.32812 18.2885 7.32812 19.0948C7.32812 19.9012 7.98181 20.5549 8.78817 20.5549Z" fill="#979C9E"/>
<path id="Vector_6" d="M13.6534 20.5549C14.4598 20.5549 15.1135 19.9012 15.1135 19.0948C15.1135 18.2885 14.4598 17.6348 13.6534 17.6348C12.847 17.6348 12.1934 18.2885 12.1934 19.0948C12.1934 19.9012 12.847 20.5549 13.6534 20.5549Z" fill="#979C9E"/>
<path id="Vector_7" d="M8.78817 25.422C9.59453 25.422 10.2482 24.7684 10.2482 23.962C10.2482 23.1556 9.59453 22.502 8.78817 22.502C7.98181 22.502 7.32812 23.1556 7.32812 23.962C7.32812 24.7684 7.98181 25.422 8.78817 25.422Z" fill="#979C9E"/>
<path id="Vector_8" d="M13.6534 25.422C14.4598 25.422 15.1135 24.7684 15.1135 23.962C15.1135 23.1556 14.4598 22.502 13.6534 22.502C12.847 22.502 12.1934 23.1556 12.1934 23.962C12.1934 24.7684 12.847 25.422 13.6534 25.422Z" fill="#979C9E"/>
<path id="Vector_9" d="M18.5206 25.422C19.327 25.422 19.9806 24.7684 19.9806 23.962C19.9806 23.1556 19.327 22.502 18.5206 22.502C17.7142 22.502 17.0605 23.1556 17.0605 23.962C17.0605 24.7684 17.7142 25.422 18.5206 25.422Z" fill="#979C9E"/>
<path id="Vector (Stroke)_2" fill-rule="evenodd" clip-rule="evenodd" d="M8.30149 2.06055C8.83906 2.06055 9.27485 2.49634 9.27485 3.03391V4.98064C9.27485 5.51821 8.83906 5.954 8.30149 5.954C7.76392 5.954 7.32812 5.51821 7.32812 4.98064V3.03391C7.32812 2.49634 7.76392 2.06055 8.30149 2.06055Z" fill="#979C9E"/>
<path id="Vector (Stroke)_3" fill-rule="evenodd" clip-rule="evenodd" d="M23.8738 2.06055C24.4113 2.06055 24.8471 2.49634 24.8471 3.03391V4.98064C24.8471 5.51821 24.4113 5.954 23.8738 5.954C23.3362 5.954 22.9004 5.51821 22.9004 4.98064V3.03391C22.9004 2.49634 23.3362 2.06055 23.8738 2.06055Z" fill="#979C9E"/>
<path id="Vector (Stroke)_4" fill-rule="evenodd" clip-rule="evenodd" d="M3.43359 8.875H28.7411V10.8217H3.43359V8.875Z" fill="#979C9E"/>
</g>
</svg>
