<svg width="51" height="51" viewBox="0 0 51 51" fill="none" xmlns="http://www.w3.org/2000/svg">
<rect x="42.6387" y="42.6394" width="34.2787" height="34.2787" rx="17.1393" transform="rotate(-180 42.6387 42.6394)" fill="#1A2849"/>
<rect x="42.6387" y="42.6394" width="34.2787" height="34.2787" rx="17.1393" transform="rotate(-180 42.6387 42.6394)" stroke="#1A2849" stroke-width="0.836066"/>
<path fill-rule="evenodd" clip-rule="evenodd" d="M32.6024 20.4298C32.8631 20.6579 32.8895 21.054 32.6614 21.3146L23.8827 31.3474C23.7684 31.478 23.6051 31.5554 23.4317 31.5612C23.2582 31.567 23.0902 31.5006 22.9674 31.3779L19.2051 27.6156C18.9603 27.3707 18.9603 26.9737 19.2051 26.7288C19.45 26.4839 19.847 26.4839 20.0919 26.7288L23.3803 30.0172L31.7176 20.4888C31.9457 20.2282 32.3418 20.2018 32.6024 20.4298Z" fill="white"/>
</svg>
