<svg width="32" height="32" viewBox="0 0 32 32" fill="none" xmlns="http://www.w3.org/2000/svg">
<g id="icon / ionicons / outline / calendar-outline">
<path id="Vector (Stroke)" fill-rule="evenodd" clip-rule="evenodd" d="M6.45986 6.31392C5.38472 6.31392 4.51314 7.1855 4.51314 8.26065V25.7812C4.51314 26.8564 5.38472 27.7279 6.45986 27.7279H25.9272C27.0023 27.7279 27.8739 26.8564 27.8739 25.7812V8.26065C27.8739 7.1855 27.0023 6.31392 25.9272 6.31392H6.45986ZM2.56641 8.26065C2.56641 6.11035 4.30957 4.36719 6.45986 4.36719H25.9272C28.0774 4.36719 29.8206 6.11035 29.8206 8.26065V25.7812C29.8206 27.9315 28.0774 29.6747 25.9272 29.6747H6.45986C4.30957 29.6747 2.56641 27.9315 2.56641 25.7812V8.26065Z" fill="#1A2849"/>
<path id="Vector" d="M18.628 16.047C19.4344 16.047 20.0881 15.3934 20.0881 14.587C20.0881 13.7806 19.4344 13.127 18.628 13.127C17.8217 13.127 17.168 13.7806 17.168 14.587C17.168 15.3934 17.8217 16.047 18.628 16.047Z" fill="#1A2849"/>
<path id="Vector_2" d="M23.4952 16.047C24.3016 16.047 24.9552 15.3934 24.9552 14.587C24.9552 13.7806 24.3016 13.127 23.4952 13.127C22.6888 13.127 22.0352 13.7806 22.0352 14.587C22.0352 15.3934 22.6888 16.047 23.4952 16.047Z" fill="#1A2849"/>
<path id="Vector_3" d="M18.628 20.9142C19.4344 20.9142 20.0881 20.2605 20.0881 19.4542C20.0881 18.6478 19.4344 17.9941 18.628 17.9941C17.8217 17.9941 17.168 18.6478 17.168 19.4542C17.168 20.2605 17.8217 20.9142 18.628 20.9142Z" fill="#1A2849"/>
<path id="Vector_4" d="M23.4952 20.9142C24.3016 20.9142 24.9552 20.2605 24.9552 19.4542C24.9552 18.6478 24.3016 17.9941 23.4952 17.9941C22.6888 17.9941 22.0352 18.6478 22.0352 19.4542C22.0352 20.2605 22.6888 20.9142 23.4952 20.9142Z" fill="#1A2849"/>
<path id="Vector_5" d="M8.89364 20.9142C9.7 20.9142 10.3537 20.2605 10.3537 19.4542C10.3537 18.6478 9.7 17.9941 8.89364 17.9941C8.08728 17.9941 7.43359 18.6478 7.43359 19.4542C7.43359 20.2605 8.08728 20.9142 8.89364 20.9142Z" fill="#1A2849"/>
<path id="Vector_6" d="M13.7608 20.9142C14.5672 20.9142 15.2209 20.2605 15.2209 19.4542C15.2209 18.6478 14.5672 17.9941 13.7608 17.9941C12.9545 17.9941 12.3008 18.6478 12.3008 19.4542C12.3008 20.2605 12.9545 20.9142 13.7608 20.9142Z" fill="#1A2849"/>
<path id="Vector_7" d="M8.89364 25.7814C9.7 25.7814 10.3537 25.1277 10.3537 24.3214C10.3537 23.515 9.7 22.8613 8.89364 22.8613C8.08728 22.8613 7.43359 23.515 7.43359 24.3214C7.43359 25.1277 8.08728 25.7814 8.89364 25.7814Z" fill="#1A2849"/>
<path id="Vector_8" d="M13.7608 25.7814C14.5672 25.7814 15.2209 25.1277 15.2209 24.3214C15.2209 23.515 14.5672 22.8613 13.7608 22.8613C12.9545 22.8613 12.3008 23.515 12.3008 24.3214C12.3008 25.1277 12.9545 25.7814 13.7608 25.7814Z" fill="#1A2849"/>
<path id="Vector_9" d="M18.628 25.7814C19.4344 25.7814 20.0881 25.1277 20.0881 24.3214C20.0881 23.515 19.4344 22.8613 18.628 22.8613C17.8217 22.8613 17.168 23.515 17.168 24.3214C17.168 25.1277 17.8217 25.7814 18.628 25.7814Z" fill="#1A2849"/>
<path id="Vector (Stroke)_2" fill-rule="evenodd" clip-rule="evenodd" d="M8.40696 2.41992C8.94453 2.41992 9.38032 2.85571 9.38032 3.39329V5.34002C9.38032 5.87759 8.94453 6.31338 8.40696 6.31338C7.86938 6.31338 7.43359 5.87759 7.43359 5.34002V3.39329C7.43359 2.85571 7.86938 2.41992 8.40696 2.41992Z" fill="#1A2849"/>
<path id="Vector (Stroke)_3" fill-rule="evenodd" clip-rule="evenodd" d="M23.9812 2.41992C24.5188 2.41992 24.9545 2.85571 24.9545 3.39329V5.34002C24.9545 5.87759 24.5188 6.31338 23.9812 6.31338C23.4436 6.31338 23.0078 5.87759 23.0078 5.34002V3.39329C23.0078 2.85571 23.4436 2.41992 23.9812 2.41992Z" fill="#1A2849"/>
<path id="Vector (Stroke)_4" fill-rule="evenodd" clip-rule="evenodd" d="M3.54297 9.23438H28.8504V11.1811H3.54297V9.23438Z" fill="#1A2849"/>
</g>
</svg>
