<svg width="20" height="21" viewBox="0 0 20 21" fill="none" xmlns="http://www.w3.org/2000/svg">
<g id="Group 634062">
<path id="Vector (Stroke)" fill-rule="evenodd" clip-rule="evenodd" d="M0 10.5C0 5.11704 4.36704 0.75 9.75 0.75C15.133 0.75 19.5 5.11704 19.5 10.5C19.5 15.883 15.133 20.25 9.75 20.25C4.36704 20.25 0 15.883 0 10.5ZM9.75 2.25C5.19546 2.25 1.5 5.94546 1.5 10.5C1.5 15.0545 5.19546 18.75 9.75 18.75C14.3045 18.75 18 15.0545 18 10.5C18 5.94546 14.3045 2.25 9.75 2.25Z" fill="white"/>
<path id="Vector (Stroke)_2" fill-rule="evenodd" clip-rule="evenodd" d="M14.7324 6.17574C15.0496 6.44216 15.0907 6.91525 14.8243 7.23241L8.52429 14.7324C8.38466 14.8986 8.17986 14.9962 7.96281 14.9999C7.74576 15.0036 7.53776 14.9131 7.39254 14.7517L4.69254 11.7517C4.41544 11.4439 4.4404 10.9696 4.74828 10.6925C5.05617 10.4155 5.53038 10.4404 5.80748 10.7483L7.93049 13.1072L13.6757 6.26762C13.9421 5.95046 14.4152 5.90932 14.7324 6.17574Z" fill="white"/>
</g>
</svg>
