<svg width="25" height="25" viewBox="0 0 25 25" fill="none" xmlns="http://www.w3.org/2000/svg">
<g id="icon / ionicons / outline / radio-button-on-outline">
<path id="Vector (Stroke)" fill-rule="evenodd" clip-rule="evenodd" d="M2.61328 12.6074C2.61328 7.22446 6.98032 2.85742 12.3633 2.85742C17.7462 2.85742 22.1133 7.22446 22.1133 12.6074C22.1133 17.9904 17.7462 22.3574 12.3633 22.3574C6.98032 22.3574 2.61328 17.9904 2.61328 12.6074ZM12.3633 4.35742C7.80874 4.35742 4.11328 8.05289 4.11328 12.6074C4.11328 17.162 7.80874 20.8574 12.3633 20.8574C16.9178 20.8574 20.6133 17.162 20.6133 12.6074C20.6133 8.05289 16.9178 4.35742 12.3633 4.35742Z" fill="#1A2849"/>
<path id="Vector" d="M12.3633 19.3574C16.0912 19.3574 19.1133 16.3353 19.1133 12.6074C19.1133 8.8795 16.0912 5.85742 12.3633 5.85742C8.63536 5.85742 5.61328 8.8795 5.61328 12.6074C5.61328 16.3353 8.63536 19.3574 12.3633 19.3574Z" fill="#1A2849"/>
</g>
</svg>
