<svg width="43" height="44" viewBox="0 0 43 44" fill="none" xmlns="http://www.w3.org/2000/svg">
<g id="icon / ionicons / outline / close-outline">
<path id="Vector (Stroke)" fill-rule="evenodd" clip-rule="evenodd" d="M11.1436 11.8613C11.6683 11.3366 12.5192 11.3366 13.0439 11.8613L31.8564 30.6738C32.3812 31.1986 32.3812 32.0494 31.8564 32.5742C31.3317 33.099 30.4808 33.099 29.9561 32.5742L11.1436 13.7617C10.6188 13.2369 10.6188 12.3861 11.1436 11.8613Z" fill="#6C7072"/>
<path id="Vector (Stroke)_2" fill-rule="evenodd" clip-rule="evenodd" d="M31.8564 11.8613C32.3812 12.3861 32.3812 13.2369 31.8564 13.7617L13.0439 32.5742C12.5192 33.099 11.6683 33.099 11.1436 32.5742C10.6188 32.0494 10.6188 31.1986 11.1436 30.6738L29.9561 11.8613C30.4808 11.3366 31.3317 11.3366 31.8564 11.8613Z" fill="#6C7072"/>
</g>
</svg>
