<svg width="28" height="22" viewBox="0 0 28 22" fill="none" xmlns="http://www.w3.org/2000/svg">
<path d="M2.04257 20.271C1.50554 19.734 1.20384 19.0056 1.20384 18.2461V9.53587H26.9766V18.2461C26.9766 19.0056 26.6749 19.734 26.1378 20.271C25.6008 20.808 24.8724 21.1097 24.1129 21.1097H4.06747C3.30799 21.1097 2.57961 20.808 2.04257 20.271ZM4.85079 12.109C4.42564 12.5341 4.18679 13.1107 4.18679 13.712V14.9052C4.18679 15.5064 4.42564 16.0831 4.85079 16.5082C5.27595 16.9334 5.85258 17.1722 6.45384 17.1722H9.31747C9.91873 17.1722 10.4954 16.9334 10.9205 16.5082C11.3457 16.0831 11.5845 15.5064 11.5845 14.9052V13.712C11.5845 13.1107 11.3457 12.5341 10.9205 12.109C10.4954 11.6838 9.91873 11.445 9.31747 11.445H6.45384C5.85258 11.445 5.27595 11.6838 4.85079 12.109Z" stroke="black" stroke-width="0.954545"/>
<path d="M4.06747 1.06516H24.1129C24.8724 1.06516 25.6008 1.36687 26.1378 1.9039C26.6749 2.44094 26.9766 3.16932 26.9766 3.9288V5.00266H1.20384V3.9288C1.20384 3.16932 1.50554 2.44094 2.04257 1.9039C2.57961 1.36687 3.30799 1.06516 4.06747 1.06516Z" stroke="black" stroke-width="0.954545"/>
</svg>
