<svg width="25" height="25" viewBox="0 0 25 25" fill="none" xmlns="http://www.w3.org/2000/svg">
<path fill-rule="evenodd" clip-rule="evenodd" d="M7.67188 6.90625C7.67188 6.49204 8.00766 6.15625 8.42188 6.15625H21.9219C22.3361 6.15625 22.6719 6.49204 22.6719 6.90625C22.6719 7.32046 22.3361 7.65625 21.9219 7.65625H8.42188C8.00766 7.65625 7.67188 7.32046 7.67188 6.90625Z" fill="white"/>
<path fill-rule="evenodd" clip-rule="evenodd" d="M7.67188 12.1562C7.67188 11.742 8.00766 11.4062 8.42188 11.4062H21.9219C22.3361 11.4062 22.6719 11.742 22.6719 12.1562C22.6719 12.5705 22.3361 12.9062 21.9219 12.9062H8.42188C8.00766 12.9062 7.67188 12.5705 7.67188 12.1562Z" fill="white"/>
<path fill-rule="evenodd" clip-rule="evenodd" d="M7.67188 17.4062C7.67188 16.992 8.00766 16.6562 8.42188 16.6562H21.9219C22.3361 16.6562 22.6719 16.992 22.6719 17.4062C22.6719 17.8205 22.3361 18.1562 21.9219 18.1562H8.42188C8.00766 18.1562 7.67188 17.8205 7.67188 17.4062Z" fill="white"/>
<path fill-rule="evenodd" clip-rule="evenodd" d="M3.17188 6.90625C3.17188 6.07782 3.84345 5.40625 4.67188 5.40625C5.5003 5.40625 6.17188 6.07782 6.17188 6.90625C6.17188 7.73468 5.5003 8.40625 4.67188 8.40625C3.84345 8.40625 3.17188 7.73468 3.17188 6.90625Z" fill="white"/>
<path fill-rule="evenodd" clip-rule="evenodd" d="M3.17188 12.1562C3.17188 11.3278 3.84345 10.6562 4.67188 10.6562C5.5003 10.6562 6.17188 11.3278 6.17188 12.1562C6.17188 12.9847 5.5003 13.6562 4.67188 13.6562C3.84345 13.6562 3.17188 12.9847 3.17188 12.1562Z" fill="white"/>
<path fill-rule="evenodd" clip-rule="evenodd" d="M3.17188 17.4062C3.17188 16.5778 3.84345 15.9062 4.67188 15.9062C5.5003 15.9062 6.17188 16.5778 6.17188 17.4062C6.17188 18.2347 5.5003 18.9062 4.67188 18.9062C3.84345 18.9062 3.17188 18.2347 3.17188 17.4062Z" fill="white"/>
</svg>
