<svg width="20" height="20" viewBox="0 0 20 20" fill="none" xmlns="http://www.w3.org/2000/svg">
<path fill-rule="evenodd" clip-rule="evenodd" d="M0 9.75C0 4.36704 4.36704 0 9.75 0C15.133 0 19.5 4.36704 19.5 9.75C19.5 15.133 15.133 19.5 9.75 19.5C4.36704 19.5 0 15.133 0 9.75ZM9.75 1.5C5.19546 1.5 1.5 5.19546 1.5 9.75C1.5 14.3045 5.19546 18 9.75 18C14.3045 18 18 14.3045 18 9.75C18 5.19546 14.3045 1.5 9.75 1.5Z" fill="#757676"/>
<path fill-rule="evenodd" clip-rule="evenodd" d="M14.7324 5.42574C15.0496 5.69216 15.0907 6.16525 14.8243 6.48241L8.52429 13.9824C8.38466 14.1486 8.17986 14.2462 7.96281 14.2499C7.74576 14.2536 7.53776 14.1631 7.39254 14.0017L4.69254 11.0017C4.41544 10.6939 4.4404 10.2196 4.74828 9.94255C5.05617 9.66545 5.53038 9.69041 5.80748 9.99829L7.93049 12.3572L13.6757 5.51762C13.9421 5.20046 14.4152 5.15932 14.7324 5.42574Z" fill="#757676"/>
</svg>
