<svg width="25" height="25" viewBox="0 0 25 25" fill="none" xmlns="http://www.w3.org/2000/svg">
<path fill-rule="evenodd" clip-rule="evenodd" d="M9.59375 7.56055C8.53233 7.56055 7.67188 8.421 7.67188 9.48242V19.8887C7.67188 20.9501 8.53233 21.8105 9.59375 21.8105H20C21.0614 21.8105 21.9219 20.9501 21.9219 19.8887V9.48242C21.9219 8.421 21.0614 7.56055 20 7.56055H9.59375ZM6.17188 9.48242C6.17188 7.59257 7.7039 6.06055 9.59375 6.06055H20C21.8898 6.06055 23.4219 7.59257 23.4219 9.48242V19.8887C23.4219 21.7785 21.8898 23.3105 20 23.3105H9.59375C7.7039 23.3105 6.17188 21.7785 6.17188 19.8887V9.48242Z" fill="white"/>
<path fill-rule="evenodd" clip-rule="evenodd" d="M6.16966 2.31055L6.17188 2.31055H16.2969L16.299 2.31055C17.1928 2.31309 18.0492 2.66926 18.6812 3.30125C19.3132 3.93323 19.6693 4.78966 19.6719 5.68341C19.6719 5.68933 19.6718 5.69525 19.6717 5.70117L19.6483 6.82617C19.6396 7.24029 19.2969 7.56901 18.8828 7.56038C18.4687 7.55176 18.14 7.20905 18.1486 6.79493L18.1718 5.67956C18.1683 5.18509 17.9703 4.71172 17.6205 4.36191C17.269 4.01041 16.7928 3.81222 16.2957 3.81055H6.17307C5.57665 3.81258 5.00523 4.0504 4.58348 4.47215C4.16173 4.8939 3.92391 5.46533 3.92188 6.06174V16.1844C3.92355 16.6815 4.12174 17.1577 4.47324 17.5092C4.82474 17.8607 5.30101 18.0589 5.79808 18.0605H6.92188C7.33609 18.0605 7.67188 18.3963 7.67188 18.8105C7.67188 19.2248 7.33609 19.5605 6.92188 19.5605H5.79688L5.79474 19.5605C4.90098 19.558 4.04456 19.2018 3.41258 18.5698C2.78059 17.9379 2.42442 17.0814 2.42188 16.1877L2.42188 16.1855V6.06055L2.42188 6.05833C2.42481 5.06526 2.82061 4.1137 3.52282 3.41149C4.22503 2.70928 5.17659 2.31349 6.16966 2.31055Z" fill="white"/>
<path fill-rule="evenodd" clip-rule="evenodd" d="M14.7969 10.1855C15.2111 10.1855 15.5469 10.5213 15.5469 10.9355V18.4355C15.5469 18.8498 15.2111 19.1855 14.7969 19.1855C14.3827 19.1855 14.0469 18.8498 14.0469 18.4355V10.9355C14.0469 10.5213 14.3827 10.1855 14.7969 10.1855Z" fill="white"/>
<path fill-rule="evenodd" clip-rule="evenodd" d="M10.2969 14.6855C10.2969 14.2713 10.6327 13.9355 11.0469 13.9355H18.5469C18.9611 13.9355 19.2969 14.2713 19.2969 14.6855C19.2969 15.0998 18.9611 15.4355 18.5469 15.4355H11.0469C10.6327 15.4355 10.2969 15.0998 10.2969 14.6855Z" fill="white"/>
</svg>
