<svg width="25" height="25" viewBox="0 0 25 25" fill="none" xmlns="http://www.w3.org/2000/svg">
<g clip-path="url(#clip0_2314_25139)">
<path fill-rule="evenodd" clip-rule="evenodd" d="M3.88281 10.0156C4.29703 10.0156 4.63281 10.3514 4.63281 10.7656V21.8281H8.38281V16.2031C8.38281 15.7058 8.58036 15.2289 8.93199 14.8773C9.28362 14.5257 9.76053 14.3281 10.2578 14.3281H14.0078C14.5051 14.3281 14.982 14.5257 15.3336 14.8773C15.6853 15.2289 15.8828 15.7058 15.8828 16.2031V21.8281H19.6328V10.7656C19.6328 10.3514 19.9686 10.0156 20.3828 10.0156C20.797 10.0156 21.1328 10.3514 21.1328 10.7656V21.8281C21.1328 22.2259 20.9748 22.6075 20.6935 22.8888C20.4122 23.1701 20.0306 23.3281 19.6328 23.3281H15.1328C14.7186 23.3281 14.3828 22.9923 14.3828 22.5781V16.2031C14.3828 16.1037 14.3433 16.0083 14.273 15.938C14.2027 15.8676 14.1073 15.8281 14.0078 15.8281H10.2578C10.1584 15.8281 10.063 15.8676 9.99265 15.938C9.92232 16.0083 9.88281 16.1037 9.88281 16.2031V22.5781C9.88281 22.9923 9.54703 23.3281 9.13281 23.3281H4.63281C4.23499 23.3281 3.85346 23.1701 3.57215 22.8888C3.29085 22.6075 3.13281 22.2259 3.13281 21.8281V10.7656C3.13281 10.3514 3.4686 10.0156 3.88281 10.0156Z" fill="white"/>
<path fill-rule="evenodd" clip-rule="evenodd" d="M13.1721 2.73279L23.1514 12.2855C23.4507 12.572 23.461 13.0467 23.1746 13.3459C22.8882 13.6451 22.4134 13.6555 22.1142 13.3691L12.1478 3.82878C12.1433 3.82838 12.1383 3.82813 12.1331 3.82813C12.1276 3.82812 12.1225 3.82836 12.1178 3.82877L2.15144 13.3691C1.85222 13.6555 1.37746 13.6451 1.09103 13.3459C0.804602 13.0467 0.814971 12.572 1.11419 12.2855L11.0942 2.73218C11.4001 2.42201 11.817 2.32756 12.1357 2.32813C12.4531 2.3287 12.8686 2.42392 13.1721 2.73279Z" fill="white"/>
<path fill-rule="evenodd" clip-rule="evenodd" d="M15.8828 3.82812C15.8828 3.41391 16.2186 3.07812 16.6328 3.07812H18.8828C19.297 3.07812 19.6328 3.41391 19.6328 3.82812V9.21875C19.6328 9.63296 19.297 9.96875 18.8828 9.96875C18.4686 9.96875 18.1328 9.63296 18.1328 9.21875V4.57812H17.3828V7.0625C17.3828 7.47671 17.047 7.8125 16.6328 7.8125C16.2186 7.8125 15.8828 7.47671 15.8828 7.0625V3.82812Z" fill="white"/>
</g>
<defs>
<clipPath id="clip0_2314_25139">
<rect width="24" height="24" fill="white" transform="translate(0.132812 0.828125)"/>
</clipPath>
</defs>
</svg>
