<svg width="24" height="24" viewBox="0 0 24 24" fill="none" xmlns="http://www.w3.org/2000/svg">
<path d="M2.26884 19.4812L2.6224 19.1276C2.22388 18.7291 2 18.1886 2 17.625V10.9062H22V17.625C22 18.1886 21.7761 18.7291 21.3776 19.1276C20.9791 19.5261 20.4386 19.75 19.875 19.75H4.125C3.56141 19.75 3.02091 19.5261 2.6224 19.1276L2.26884 19.4812ZM9.59792 12.7146L9.24437 13.0681L9.59792 12.7146C9.24043 12.3571 8.75557 12.1562 8.25 12.1562H6C5.49443 12.1562 5.00957 12.3571 4.65208 12.7146C4.29459 13.0721 4.09375 13.5569 4.09375 14.0625V15C4.09375 15.5056 4.29459 15.9904 4.65208 16.3479C5.00957 16.7054 5.49443 16.9062 6 16.9062H8.25C8.75557 16.9062 9.24043 16.7054 9.59792 16.3479C9.95541 15.9904 10.1562 15.5056 10.1562 15V14.0625C10.1562 13.5569 9.95541 13.0721 9.59792 12.7146Z" fill="white" stroke="#1A2849"/>
<path d="M4.125 4.25H19.875C20.4386 4.25 20.9791 4.47388 21.3776 4.8724C21.7761 5.27091 22 5.81141 22 6.375V7.09375H2V6.375C2 5.81141 2.22388 5.27091 2.6224 4.8724C3.02091 4.47388 3.56142 4.25 4.125 4.25Z" fill="white" stroke="#1A2849"/>
</svg>
