<svg width="20" height="26" viewBox="0 0 20 26" fill="none" xmlns="http://www.w3.org/2000/svg">
<path d="M1.04297 24.7019V24.7015V3.22471C1.04297 2.51347 1.32551 1.83136 1.82845 1.32844C2.33139 0.825512 3.01352 0.542969 3.72479 0.542969H16.4521C17.1633 0.542969 17.8455 0.825512 18.3484 1.32844L18.6933 0.983504L18.3484 1.32844C18.8513 1.83136 19.1339 2.51347 19.1339 3.22471V24.7015V24.7019C19.1339 24.7532 19.1206 24.8036 19.0952 24.8482C19.0698 24.8928 19.0333 24.93 18.9892 24.9562C18.945 24.9823 18.8949 24.9966 18.8436 24.9975C18.7923 24.9984 18.7416 24.9859 18.6966 24.9612L18.6961 24.961L10.3279 20.3952L10.0884 20.2645L9.84894 20.3952L1.48076 24.961L1.48025 24.9613C1.43524 24.9859 1.38459 24.9984 1.33329 24.9975C1.28198 24.9966 1.2318 24.9823 1.18767 24.9562C1.14354 24.93 1.107 24.8928 1.08163 24.8482L0.647053 25.0955L1.08163 24.8482C1.05625 24.8036 1.04293 24.7532 1.04297 24.7019Z" fill="white" stroke="black"/>
</svg>
