<svg width="24" height="24" viewBox="0 0 24 24" fill="none" xmlns="http://www.w3.org/2000/svg">
<path d="M8.11269 3.85673L9.41581 4.72814L9.41678 4.72879L8.11269 3.85673ZM8.11269 3.85673L8.39062 3.4411L10.3177 4.5V5H10.3185H20.625C21.1886 5 21.7291 5.22389 22.1276 5.6224C22.5261 6.02092 22.75 6.56142 22.75 7.125V7.75H1.25V5.625C1.25 5.06142 1.47388 4.52092 1.8724 4.1224C2.27091 3.72389 2.81142 3.50001 3.375 3.50001L6.93234 3.50001L6.93332 3.5C7.35314 3.49918 7.7637 3.62337 8.11269 3.85673Z" fill="white" stroke="#1A2849"/>
<path d="M1.51884 20.2312L1.8724 19.8776C1.47388 19.4791 1.25 18.9386 1.25 18.375V10.25H22.75V18.375C22.75 18.9386 22.5261 19.4791 22.1276 19.8776C21.7291 20.2761 21.1886 20.5 20.625 20.5H3.375C2.81141 20.5 2.27091 20.2761 1.8724 19.8776L1.51884 20.2312Z" fill="white" stroke="#1A2849"/>
</svg>
