<svg width="20" height="26" viewBox="0 0 20 26" fill="none" xmlns="http://www.w3.org/2000/svg">
<path d="M0.5 24.6589V24.6585V3.18175C0.5 2.47051 0.782545 1.78839 1.28548 1.28547C1.78842 0.782543 2.47055 0.5 3.18182 0.5H15.9091C16.6204 0.5 17.3025 0.782543 17.8054 1.28547L18.1504 0.940535L17.8054 1.28547C18.3084 1.7884 18.5909 2.47051 18.5909 3.18175V24.6585V24.6589C18.5909 24.7102 18.5776 24.7606 18.5522 24.8052C18.5269 24.8498 18.4903 24.887 18.4462 24.9132C18.4021 24.9394 18.3519 24.9536 18.3006 24.9545C18.2493 24.9554 18.1986 24.9429 18.1536 24.9183L18.1531 24.918L9.78493 20.3522L9.54545 20.2215L9.30597 20.3522L0.937792 24.918L0.937281 24.9183C0.89227 24.9429 0.841618 24.9554 0.790321 24.9545C0.739013 24.9536 0.688829 24.9394 0.644705 24.9132C0.600576 24.887 0.56403 24.8498 0.538659 24.8052L0.104085 25.0525L0.538657 24.8052C0.513285 24.7606 0.499963 24.7102 0.5 24.6589Z" fill="white" stroke="#1A2849"/>
</svg>
