<svg width="24" height="24" viewBox="0 0 24 24" fill="none" xmlns="http://www.w3.org/2000/svg">
<path fill-rule="evenodd" clip-rule="evenodd" d="M2.25 11.625C2.25 6.44782 6.44782 2.25 11.625 2.25C16.8022 2.25 21 6.44782 21 11.625C21 16.8022 16.8022 21 11.625 21C6.44782 21 2.25 16.8022 2.25 11.625ZM11.625 3.75C7.27624 3.75 3.75 7.27624 3.75 11.625C3.75 15.9738 7.27624 19.5 11.625 19.5C15.9738 19.5 19.5 15.9738 19.5 11.625C19.5 7.27624 15.9738 3.75 11.625 3.75Z" fill="white"/>
<path fill-rule="evenodd" clip-rule="evenodd" d="M9.5625 10.3125C9.5625 9.89829 9.89829 9.5625 10.3125 9.5625H11.8125C12.2267 9.5625 12.5625 9.89829 12.5625 10.3125V15.75C12.5625 16.1642 12.2267 16.5 11.8125 16.5C11.3983 16.5 11.0625 16.1642 11.0625 15.75V11.0625H10.3125C9.89829 11.0625 9.5625 10.7267 9.5625 10.3125Z" fill="white"/>
<path fill-rule="evenodd" clip-rule="evenodd" d="M9 15.9375C9 15.5233 9.33579 15.1875 9.75 15.1875H13.875C14.2892 15.1875 14.625 15.5233 14.625 15.9375C14.625 16.3517 14.2892 16.6875 13.875 16.6875H9.75C9.33579 16.6875 9 16.3517 9 15.9375Z" fill="white"/>
<path d="M11.625 6.09375C11.384 6.09375 11.1483 6.16523 10.9479 6.29915C10.7475 6.43306 10.5913 6.62341 10.499 6.8461C10.4068 7.0688 10.3826 7.31385 10.4297 7.55027C10.4767 7.78668 10.5928 8.00384 10.7632 8.17429C10.9337 8.34473 11.1508 8.46081 11.3872 8.50783C11.6236 8.55486 11.8687 8.53072 12.0914 8.43848C12.3141 8.34623 12.5044 8.19002 12.6384 7.9896C12.7723 7.78918 12.8438 7.55355 12.8438 7.3125C12.8438 6.98927 12.7153 6.67927 12.4868 6.45071C12.2582 6.22215 11.9482 6.09375 11.625 6.09375Z" fill="white"/>
</svg>
