<svg width="85" height="85" viewBox="0 0 85 85" fill="none" xmlns="http://www.w3.org/2000/svg">
<path d="M33.3477 16.7455L33.3511 16.7478L36.5417 15.9375V17.7084H36.5443H73.0469C75.0429 17.7084 76.9572 18.5013 78.3686 19.9127C79.78 21.3241 80.5729 23.2384 80.5729 25.2344V27.4479H4.42708V19.9219C4.42708 17.9259 5.22 16.0116 6.63141 14.6002C8.04282 13.1888 9.95709 12.3959 11.9531 12.3959L24.552 12.3959L24.5555 12.3958C26.0424 12.3929 27.4965 12.8328 28.7324 13.6593L33.3477 16.7455Z" stroke="white" stroke-width="3.54167"/>
<path d="M6.63141 70.3998C5.22 68.9884 4.42708 67.0742 4.42708 65.0781V36.3021H80.5729V65.0781C80.5729 67.0742 79.78 68.9884 78.3686 70.3998C76.9572 71.8112 75.0429 72.6042 73.0469 72.6042H11.9531C9.95709 72.6042 8.04282 71.8112 6.63141 70.3998Z" stroke="white" stroke-width="3.54167"/>
</svg>
