<svg width="44" height="35" viewBox="0 0 44 35" fill="none" xmlns="http://www.w3.org/2000/svg">
<path d="M2.1665 32.4058C1.2824 31.5217 0.785714 30.3226 0.785714 29.0723V14.733H43.2143V29.0723C43.2143 30.3226 42.7176 31.5217 41.8335 32.4058C40.9494 33.2899 39.7503 33.7866 38.5 33.7866H5.5C4.24969 33.7866 3.0506 33.2899 2.1665 32.4058ZM6.78955 18.969C6.08964 19.6689 5.69643 20.6182 5.69643 21.608V23.5723C5.69643 24.5621 6.08964 25.5114 6.78955 26.2113C7.48946 26.9112 8.43875 27.3044 9.42857 27.3044H14.1429C15.1327 27.3044 16.082 26.9112 16.7819 26.2113C17.4818 25.5114 17.875 24.5621 17.875 23.5723V21.608C17.875 20.6182 17.4818 19.6689 16.7819 18.969C16.082 18.269 15.1327 17.8758 14.1429 17.8758H9.42857C8.43875 17.8758 7.48946 18.269 6.78955 18.969Z" stroke="white" stroke-width="1.57143"/>
<path d="M5.5 0.785714H38.5C39.7503 0.785714 40.9494 1.2824 41.8335 2.1665C42.7176 3.0506 43.2143 4.24969 43.2143 5.5V7.26786H0.785714V5.5C0.785714 4.24969 1.2824 3.0506 2.1665 2.1665C3.0506 1.2824 4.24969 0.785714 5.5 0.785714Z" stroke="white" stroke-width="1.57143"/>
</svg>
