<svg width="1300" height="500" viewBox="0 0 1300 500" fill="none" xmlns="http://www.w3.org/2000/svg">
<path fill-rule="evenodd" clip-rule="evenodd" d="M1300 0H0V339.608H1300V0ZM1300 339.609H0V500.001H5.72543C5.72555 495.715 10.846 492.24 17.1624 492.24C23.4788 492.24 28.5992 495.715 28.5993 500.001H38.1303C38.1304 495.715 43.2509 492.24 49.5673 492.24C55.8836 492.24 61.0041 495.715 61.0042 500.001H70.5314C70.5316 495.715 75.652 492.24 81.9684 492.24C88.2848 492.24 93.4052 495.715 93.4053 500.001H102.94C102.94 495.715 108.061 492.24 114.377 492.24C120.693 492.24 125.814 495.715 125.814 500.001H135.337C135.338 495.715 140.458 492.24 146.774 492.24C153.091 492.24 158.211 495.715 158.211 500.001H167.757C167.757 495.715 172.878 492.24 179.194 492.24C185.511 492.24 190.631 495.715 190.631 500.001L200.158 500.001C200.158 495.715 205.279 492.24 211.595 492.24C217.912 492.24 223.032 495.715 223.032 500.001H232.556C232.556 495.715 237.676 492.24 243.993 492.24C250.309 492.24 255.43 495.715 255.43 500.001H264.968C264.968 495.715 270.089 492.24 276.405 492.24C282.722 492.24 287.842 495.715 287.842 500.001H297.366C297.366 495.715 302.486 492.24 308.803 492.24C315.119 492.24 320.24 495.715 320.24 500.001H329.77C329.77 495.715 334.891 492.24 341.207 492.24C347.524 492.24 352.644 495.715 352.644 500.001H362.175C362.175 495.715 367.296 492.24 373.612 492.24C379.929 492.24 385.049 495.715 385.049 500.001H394.58C394.58 495.715 399.701 492.24 406.017 492.24C412.334 492.24 417.454 495.715 417.454 500.001H426.993C426.993 495.715 432.113 492.24 438.43 492.24C444.746 492.24 449.867 495.715 449.867 500.001H459.394C459.394 495.715 464.514 492.24 470.831 492.24C477.147 492.24 482.268 495.715 482.268 500.001H491.806C491.806 495.715 496.927 492.24 503.243 492.24C509.56 492.24 514.68 495.715 514.68 500.001H524.203C524.203 495.715 529.324 492.24 535.64 492.24C541.957 492.24 547.077 495.715 547.077 500.001H556.601C556.601 495.715 561.721 492.24 568.038 492.24C574.354 492.24 579.475 495.715 579.475 500.001H589.006C589.006 495.715 594.126 492.24 600.443 492.24C606.759 492.24 611.88 495.715 611.88 500.001H621.411C621.411 495.715 626.531 492.24 632.848 492.24C639.164 492.24 644.285 495.715 644.285 500.001H653.816C653.816 495.715 658.936 492.24 665.252 492.24C671.569 492.24 676.689 495.715 676.689 500.001H686.228C686.228 495.715 691.348 492.24 697.665 492.24C703.981 492.24 709.102 495.715 709.102 500.001H718.629C718.629 495.715 723.75 492.24 730.066 492.24C736.382 492.24 741.503 495.715 741.503 500.001H751.034C751.034 495.715 756.154 492.24 762.471 492.24C768.787 492.24 773.908 495.715 773.908 500.001H783.431C783.431 495.715 788.552 492.24 794.868 492.24C801.185 492.24 806.305 495.715 806.305 500.001H815.844C815.844 495.715 820.964 492.24 827.281 492.24C833.597 492.24 838.718 495.715 838.718 500.001H848.249C848.249 495.715 853.369 492.24 859.685 492.24C866.002 492.24 871.122 495.715 871.122 500.001H880.65C880.65 495.715 885.77 492.24 892.087 492.24C898.403 492.24 903.524 495.715 903.524 500.001H913.058C913.058 495.715 918.179 492.24 924.495 492.24C930.812 492.24 935.932 495.715 935.932 500.001H945.452C945.452 495.715 950.572 492.24 956.889 492.24C963.205 492.24 968.326 495.715 968.326 500.001H977.872C977.872 495.715 982.992 492.24 989.309 492.24C995.625 492.24 1000.75 495.715 1000.75 500.001H1010.28C1010.28 495.715 1015.4 492.24 1021.72 492.24C1028.03 492.24 1033.15 495.715 1033.15 500.001H1042.68C1042.68 495.715 1047.8 492.24 1054.11 492.24C1060.43 492.24 1065.55 495.715 1065.55 500.001H1075.08C1075.08 495.715 1080.2 492.24 1086.52 492.24C1092.83 492.24 1097.95 495.715 1097.95 500.001H1107.48C1107.48 495.715 1112.6 492.24 1118.92 492.24C1125.24 492.24 1130.36 495.715 1130.36 500.001H1139.9C1139.9 495.715 1145.02 492.24 1151.33 492.24C1157.65 492.24 1162.77 495.715 1162.77 500.001H1172.3C1172.3 495.715 1177.42 492.24 1183.74 492.24C1190.05 492.24 1195.18 495.715 1195.18 500.001H1204.69C1204.69 495.715 1209.82 492.24 1216.13 492.24C1222.45 492.24 1227.57 495.715 1227.57 500.001H1237.1C1237.1 495.715 1242.22 492.24 1248.54 492.24C1254.86 492.24 1259.98 495.715 1259.98 500.001H1269.5C1269.5 495.715 1274.62 492.24 1280.93 492.24C1287.25 492.24 1292.37 495.715 1292.37 500.001L1300 500.001V339.609Z" fill="white"/>
</svg>
