<svg width="13" height="13" viewBox="0 0 13 13" fill="none" xmlns="http://www.w3.org/2000/svg">
<path d="M6.63398 11.5274C5.30859 11.5274 4.06445 11.0119 3.13008 10.0801C2.19316 9.14573 1.67773 7.90413 1.67773 6.58128V5.82464C1.67773 5.6012 1.86055 5.41839 2.08398 5.41839C2.30742 5.41839 2.49023 5.6012 2.49023 5.82464V6.58128C2.49023 8.86136 4.34883 10.7149 6.63398 10.7149C7.8959 10.7123 9.0791 10.1487 9.87383 9.16604C10.016 8.99085 10.2699 8.96546 10.4451 9.10511C10.6203 9.24729 10.6457 9.5012 10.5061 9.6764C9.55391 10.852 8.14473 11.5248 6.63398 11.5274ZM11.1713 7.73401C10.9479 7.73401 10.765 7.5512 10.765 7.32776V6.57112C10.765 4.29104 8.90645 2.43753 6.62129 2.43753C6.61875 2.43753 6.61875 2.43753 6.61621 2.43753C5.34922 2.43753 4.17109 3.00374 3.38145 3.99397C3.2418 4.16917 2.98535 4.1971 2.81016 4.05745C2.63496 3.9178 2.60703 3.66136 2.74668 3.48616C3.20879 2.90725 3.80547 2.43245 4.4707 2.11253C5.13594 1.79261 5.87988 1.62249 6.62129 1.62503C9.35332 1.62503 11.5775 3.84417 11.5775 6.57112V7.32776C11.5775 7.5512 11.3947 7.73401 11.1713 7.73401Z" fill="#CDCFD0"/>
<path d="M3.23164 6.98251C3.13008 6.98251 3.02852 6.94443 2.9498 6.87079L2.06875 6.02782L1.2334 6.86318C1.07598 7.0206 0.816992 7.0206 0.65957 6.86318C0.502148 6.70575 0.502148 6.44677 0.65957 6.28935L1.77676 5.17216C1.93164 5.01474 2.18555 5.0122 2.34551 5.16708L3.51348 6.28427C3.67598 6.43915 3.68105 6.6956 3.52617 6.8581C3.44492 6.93935 3.33828 6.98251 3.23164 6.98251Z" fill="#CDCFD0"/>
<path d="M11.2042 8.0997C11.1026 8.0997 11.001 8.06162 10.9223 7.98798L9.75437 6.8708C9.59187 6.71591 9.58679 6.45947 9.74167 6.29697C9.89655 6.13447 10.153 6.12939 10.3155 6.28427L11.1966 7.12724L12.0319 6.29189C12.1893 6.13447 12.4483 6.13447 12.6057 6.29189C12.7632 6.44931 12.7632 6.7083 12.6057 6.86572L11.4885 7.98291C11.4124 8.05908 11.3083 8.0997 11.2042 8.0997Z" fill="#CDCFD0"/>
</svg>
