<svg width="2000" height="508" viewBox="0 0 968 508" fill="none" xmlns="http://www.w3.org/2000/svg">
<g filter="url(#filter0_d_3007_24770)">
<path fill-rule="evenodd" clip-rule="evenodd" d="M964 0H4V339.608H964V0ZM964 500V339.609H4V500H8.22656V499.999C8.22656 495.713 12.0079 492.239 16.6723 492.239C21.3368 492.239 25.1181 495.713 25.1181 499.999V500H32.1562V499.999C32.1562 495.713 35.9375 492.239 40.602 492.239C45.2665 492.239 49.0477 495.713 49.0477 499.999V500H56.0859V499.999C56.0859 495.713 59.8672 492.239 64.5317 492.239C69.1961 492.239 72.9774 495.713 72.9774 499.999V500H80.0117V499.999C80.0117 495.713 83.793 492.239 88.4575 492.239C93.1219 492.239 96.9032 495.713 96.9032 499.999V500H103.941V499.999C103.941 495.713 107.723 492.239 112.387 492.239C117.052 492.239 120.833 495.713 120.833 499.999V500H127.879V499.999C127.879 495.713 131.66 492.239 136.325 492.239C140.989 492.239 144.77 495.713 144.77 499.999V500H151.809V499.999C151.809 495.713 155.59 492.239 160.254 492.239C164.919 492.239 168.7 495.713 168.7 499.999V500H175.73V499.999C175.73 495.713 179.512 492.239 184.176 492.239C188.841 492.239 192.622 495.713 192.622 499.999V500H199.664V499.999C199.664 495.713 203.445 492.239 208.11 492.239C212.774 492.239 216.556 495.713 216.556 499.999V500H223.59V499.999C223.59 495.713 227.371 492.239 232.036 492.239C236.7 492.239 240.481 495.713 240.481 499.999V500H247.523V499.999C247.523 495.713 251.305 492.239 255.969 492.239C260.634 492.239 264.415 495.713 264.415 499.999V500H271.453V499.999C271.453 495.713 275.234 492.239 279.899 492.239C284.563 492.239 288.345 495.713 288.345 499.999V500H295.383V499.999C295.383 495.713 299.164 492.239 303.829 492.239C308.493 492.239 312.274 495.713 312.274 499.999V500H319.316V499.999C319.316 495.713 323.098 492.239 327.762 492.239C332.427 492.239 336.208 495.713 336.208 499.999V500H343.242V499.999C343.242 495.713 347.023 492.239 351.688 492.239C356.352 492.239 360.134 495.713 360.134 499.999V500H367.176V499.999C367.176 495.713 370.957 492.239 375.622 492.239C380.286 492.239 384.067 495.713 384.067 499.999V500H391.102V499.999C391.102 495.713 394.883 492.239 399.547 492.239C404.212 492.239 407.993 495.713 407.993 499.999V500H415.027V499.999C415.027 495.713 418.809 492.239 423.473 492.239C428.138 492.239 431.919 495.713 431.919 499.999V500H438.961V499.999C438.961 495.713 442.742 492.239 447.407 492.239C452.071 492.239 455.852 495.713 455.852 499.999V500H462.887V499.999C462.887 495.713 466.668 492.239 471.332 492.239C475.997 492.239 479.778 495.713 479.778 499.999V500H486.816V499.999C486.816 495.713 490.598 492.239 495.262 492.239C499.927 492.239 503.708 495.713 503.708 499.999V500H510.75V499.999C510.75 495.713 514.531 492.239 519.196 492.239C523.86 492.239 527.641 495.713 527.641 499.999V500H534.68V499.999C534.68 495.713 538.461 492.239 543.125 492.239C547.79 492.239 551.571 495.713 551.571 499.999V500H558.609V499.999C558.609 495.713 562.391 492.239 567.055 492.239C571.72 492.239 575.501 495.713 575.501 499.999V500H582.535V499.999C582.535 495.713 586.316 492.239 590.981 492.239C595.645 492.239 599.427 495.713 599.427 499.999V500H606.465V499.999C606.465 495.713 610.246 492.239 614.911 492.239C619.575 492.239 623.356 495.713 623.356 499.999V500H630.395V499.999C630.395 495.713 634.176 492.239 638.84 492.239C643.505 492.239 647.286 495.713 647.286 499.999V500H654.324V499.999C654.324 495.713 658.106 492.239 662.77 492.239C667.434 492.239 671.216 495.713 671.216 499.999V500H678.258V499.999C678.258 495.713 682.039 492.239 686.704 492.239C691.368 492.239 695.149 495.713 695.149 499.999V500H702.18V499.999C702.18 495.713 705.961 492.239 710.625 492.239C715.29 492.239 719.071 495.713 719.071 499.999V500H726.117V499.999C726.117 495.713 729.898 492.239 734.563 492.239C739.227 492.239 743.009 495.713 743.009 499.999V500H750.051V499.999C750.051 495.713 753.832 492.239 758.497 492.239C763.161 492.239 766.942 495.713 766.942 499.999V500H773.977V499.999C773.977 495.713 777.758 492.239 782.422 492.239C787.087 492.239 790.868 495.713 790.868 499.999V500H797.906V499.999C797.906 495.713 801.688 492.239 806.352 492.239C811.016 492.239 814.798 495.713 814.798 499.999V500H821.832V499.999C821.832 495.713 825.613 492.239 830.278 492.239C834.942 492.239 838.724 495.713 838.724 499.999V500H845.766V499.999C845.766 495.713 849.547 492.239 854.211 492.239C858.876 492.239 862.657 495.713 862.657 499.999V500H869.695V499.999C869.695 495.713 873.477 492.239 878.141 492.239C882.806 492.239 886.587 495.713 886.587 499.999V500H893.621V499.999C893.621 495.713 897.402 492.239 902.067 492.239C906.731 492.239 910.513 495.713 910.513 499.999V500H917.551V499.999C917.551 495.713 921.332 492.239 925.997 492.239C930.661 492.239 934.442 495.713 934.442 499.999V500H941.476V499.999C941.476 495.713 945.258 492.239 949.922 492.239C954.587 492.239 958.368 495.713 958.368 499.999V500H964Z" fill="white"/>
</g>
<defs>
<filter id="filter0_d_3007_24770" x="0" y="0" width="968" height="508" filterUnits="userSpaceOnUse" color-interpolation-filters="sRGB">
<feFlood flood-opacity="0" result="BackgroundImageFix"/>
<feColorMatrix in="SourceAlpha" type="matrix" values="0 0 0 0 0 0 0 0 0 0 0 0 0 0 0 0 0 0 127 0" result="hardAlpha"/>
<feOffset dy="4"/>
<feGaussianBlur stdDeviation="2"/>
<feComposite in2="hardAlpha" operator="out"/>
<feColorMatrix type="matrix" values="0 0 0 0 0 0 0 0 0 0 0 0 0 0 0 0 0 0 0.25 0"/>
<feBlend mode="normal" in2="BackgroundImageFix" result="effect1_dropShadow_3007_24770"/>
<feBlend mode="normal" in="SourceGraphic" in2="effect1_dropShadow_3007_24770" result="shape"/>
</filter>
</defs>
</svg>
